G04*
G04 #@! TF.GenerationSoftware,Altium Limited,Altium Designer,23.3.1 (30)*
G04*
G04 Layer_Color=16711935*
%FSLAX25Y25*%
%MOIN*%
G70*
G04*
G04 #@! TF.SameCoordinates,A0E3A479-A048-482A-A5C8-966E8189681F*
G04*
G04*
G04 #@! TF.FilePolarity,Negative*
G04*
G01*
G75*
%ADD78C,0.06800*%
%ADD79C,0.10243*%
%ADD80R,0.10243X0.10243*%
%ADD81R,0.07093X0.07400*%
%ADD82C,0.07093*%
%ADD83C,0.12611*%
%ADD84C,0.09646*%
%ADD85O,0.09055X0.05118*%
%ADD86C,0.05524*%
%ADD87R,0.07487X0.07487*%
%ADD88C,0.07487*%
%ADD89O,0.07480X0.04331*%
%ADD90O,0.08662X0.04331*%
%ADD91C,0.03359*%
%ADD92C,0.04737*%
%ADD93C,0.48044*%
%ADD94C,0.03556*%
%ADD95C,0.04737*%
%ADD96C,0.05800*%
%ADD97C,0.20485*%
D78*
X225669Y-144055D02*
D03*
X235669D02*
D03*
X245669D02*
D03*
X255669D02*
D03*
X265669D02*
D03*
X275669D02*
D03*
X285669D02*
D03*
X295669D02*
D03*
X173779Y-333661D02*
D03*
X183780D02*
D03*
X193780D02*
D03*
X203780D02*
D03*
X213779D02*
D03*
X223780D02*
D03*
X243779D02*
D03*
X253780D02*
D03*
X263779D02*
D03*
X273780D02*
D03*
X283780D02*
D03*
X293779D02*
D03*
X137622Y-143898D02*
D03*
X147622D02*
D03*
X157622D02*
D03*
X167622D02*
D03*
X177622D02*
D03*
X187622D02*
D03*
X197622D02*
D03*
X207622D02*
D03*
D79*
X362815Y-313976D02*
D03*
X347815D02*
D03*
X377815D02*
D03*
D80*
X332815D02*
D03*
D81*
X35539Y-56102D02*
D03*
D82*
Y-44291D02*
D03*
D83*
X18531Y-50197D02*
D03*
D84*
X45382Y-93504D02*
D03*
D85*
X12705Y-103150D02*
D03*
X32390D02*
D03*
Y-83858D02*
D03*
X12705D02*
D03*
D86*
X28059Y-93504D02*
D03*
X16248D02*
D03*
D87*
X245079Y-213583D02*
D03*
X235079Y-203583D02*
D03*
X245079Y-193583D02*
D03*
X53750Y-346929D02*
D03*
X250730Y-363901D02*
D03*
X240730Y-373901D02*
D03*
X250730Y-383901D02*
D03*
D88*
X43750Y-346929D02*
D03*
X53750Y-336929D02*
D03*
X43750D02*
D03*
X53750Y-326929D02*
D03*
X43750D02*
D03*
X53750Y-316929D02*
D03*
X43750D02*
D03*
X53750Y-306929D02*
D03*
X43750D02*
D03*
X287148Y-383901D02*
D03*
Y-364216D02*
D03*
D89*
X11248Y-237553D02*
D03*
Y-203537D02*
D03*
D90*
X27587Y-237553D02*
D03*
Y-203537D02*
D03*
D91*
X25658Y-231962D02*
D03*
X25618Y-209128D02*
D03*
D92*
X24208Y-270841D02*
D03*
Y-253518D02*
D03*
D93*
X355315Y-188976D02*
D03*
Y-262795D02*
D03*
D94*
X36904Y-135023D02*
D03*
X66562Y-198321D02*
D03*
X271764Y-209532D02*
D03*
X138907Y-227716D02*
D03*
X138283Y-202612D02*
D03*
X108846Y-388218D02*
D03*
X125000Y-375747D02*
D03*
X244558Y-220183D02*
D03*
X249016Y-244094D02*
D03*
X115282Y-344403D02*
D03*
X115713Y-352196D02*
D03*
X91535Y-353346D02*
D03*
X90999Y-343986D02*
D03*
X201772Y-263779D02*
D03*
X211225Y-264211D02*
D03*
X202375Y-277192D02*
D03*
X210903Y-277084D02*
D03*
X263923Y-316667D02*
D03*
X250795Y-304405D02*
D03*
X254738Y-291903D02*
D03*
X264163Y-296760D02*
D03*
X232997Y-353681D02*
D03*
X241629Y-347540D02*
D03*
X185215Y-294421D02*
D03*
X199610Y-291476D02*
D03*
X156099Y-264977D02*
D03*
X172784Y-263887D02*
D03*
X143638Y-232394D02*
D03*
X137967Y-245497D02*
D03*
X104087Y-217688D02*
D03*
X123921Y-231411D02*
D03*
X104331Y-188976D02*
D03*
X116290Y-207466D02*
D03*
X104331Y-196850D02*
D03*
X93504Y-93504D02*
D03*
Y-88583D02*
D03*
Y-83661D02*
D03*
Y-79724D02*
D03*
X115897Y-93191D02*
D03*
X135474Y-102722D02*
D03*
X157796Y-111732D02*
D03*
X148955Y-111930D02*
D03*
X162538Y-101508D02*
D03*
X158465Y-104331D02*
D03*
X201772Y-119095D02*
D03*
X217817Y-82556D02*
D03*
X211614Y-82677D02*
D03*
X218504Y-65945D02*
D03*
Y-71850D02*
D03*
X217520Y-77756D02*
D03*
X211614D02*
D03*
X386811Y-82677D02*
D03*
X380906D02*
D03*
X375017Y-82511D02*
D03*
X296485Y-196674D02*
D03*
X299502Y-191382D02*
D03*
X305118Y-187992D02*
D03*
X311024D02*
D03*
X317211Y-187534D02*
D03*
X301262Y-199100D02*
D03*
X305142Y-193999D02*
D03*
X311024Y-193898D02*
D03*
X316636Y-194071D02*
D03*
X261942Y-194191D02*
D03*
X239199Y-185039D02*
D03*
X195866Y-189331D02*
D03*
X201595Y-190208D02*
D03*
X181157Y-208544D02*
D03*
X181160Y-203305D02*
D03*
X208739Y-199612D02*
D03*
X201138Y-218453D02*
D03*
X194994Y-223324D02*
D03*
X178386Y-231489D02*
D03*
X209050Y-246747D02*
D03*
X237003Y-241226D02*
D03*
X247075Y-254377D02*
D03*
X181642Y-306983D02*
D03*
X181537Y-322759D02*
D03*
X165020Y-350952D02*
D03*
X141005Y-350971D02*
D03*
X48163Y-273280D02*
D03*
X61994Y-253053D02*
D03*
X44166Y-227424D02*
D03*
X43915Y-215683D02*
D03*
X40019Y-222081D02*
D03*
X14764Y-194882D02*
D03*
Y-189961D02*
D03*
Y-184055D02*
D03*
Y-178150D02*
D03*
Y-172244D02*
D03*
Y-166339D02*
D03*
Y-159449D02*
D03*
X5906Y-155512D02*
D03*
Y-142717D02*
D03*
X35408Y-121063D02*
D03*
X386811Y-87598D02*
D03*
X380906D02*
D03*
X375000D02*
D03*
X5906Y-149606D02*
D03*
Y-134843D02*
D03*
X51908Y-123121D02*
D03*
X90244Y-169719D02*
D03*
X95265Y-178584D02*
D03*
X85598Y-192665D02*
D03*
X86485Y-201381D02*
D03*
X86727Y-206785D02*
D03*
X97032Y-215930D02*
D03*
X117381Y-266101D02*
D03*
X111786Y-260629D02*
D03*
X103936Y-277559D02*
D03*
X102717Y-283465D02*
D03*
X124098Y-342076D02*
D03*
X82561Y-327892D02*
D03*
X372047Y-359252D02*
D03*
Y-351378D02*
D03*
X343504Y-353346D02*
D03*
X343502Y-358119D02*
D03*
X336040Y-357942D02*
D03*
X321365Y-378956D02*
D03*
X222379Y-324697D02*
D03*
X223532Y-318937D02*
D03*
X220947Y-354342D02*
D03*
X217384Y-381411D02*
D03*
X200564Y-381506D02*
D03*
X143141Y-381266D02*
D03*
X138779Y-378937D02*
D03*
X113189D02*
D03*
X87353Y-379063D02*
D03*
X163386Y-390748D02*
D03*
X145669Y-387795D02*
D03*
X168307Y-376969D02*
D03*
X128937Y-283465D02*
D03*
X127953Y-354331D02*
D03*
Y-343504D02*
D03*
X249016Y-274606D02*
D03*
X81693Y-255906D02*
D03*
X86614Y-240158D02*
D03*
X94488Y-232283D02*
D03*
X106299Y-247047D02*
D03*
X89745Y-258544D02*
D03*
X113189Y-302165D02*
D03*
X240158Y-285433D02*
D03*
X248980Y-285361D02*
D03*
X240158Y-274606D02*
D03*
X244094Y-259842D02*
D03*
Y-289370D02*
D03*
Y-264764D02*
D03*
X126887Y-166756D02*
D03*
X132293Y-171562D02*
D03*
X137795Y-176181D02*
D03*
X143701Y-182087D02*
D03*
X150615Y-187931D02*
D03*
X120606Y-160813D02*
D03*
X158465Y-178150D02*
D03*
X128937Y-139764D02*
D03*
X130535Y-151524D02*
D03*
X136350Y-157578D02*
D03*
X141732Y-162402D02*
D03*
X146653Y-167323D02*
D03*
X152559Y-173228D02*
D03*
X23622Y-228346D02*
D03*
X15748Y-217520D02*
D03*
X12795Y-232283D02*
D03*
Y-228346D02*
D03*
X206693Y-287402D02*
D03*
X99410Y-376969D02*
D03*
X74803Y-375984D02*
D03*
X96457Y-354331D02*
D03*
X101378Y-353346D02*
D03*
X97441Y-312008D02*
D03*
X104250Y-308065D02*
D03*
X108575Y-304960D02*
D03*
X101378Y-320866D02*
D03*
X118110Y-323819D02*
D03*
X122047Y-326772D02*
D03*
X196850Y-251969D02*
D03*
Y-276575D02*
D03*
X215551Y-272638D02*
D03*
X81693Y-276575D02*
D03*
X115157Y-282480D02*
D03*
X110236D02*
D03*
X218504Y-246063D02*
D03*
X219488Y-253937D02*
D03*
D95*
X371063Y-51181D02*
D03*
Y-37402D02*
D03*
X73819Y-12795D02*
D03*
X78740Y-8858D02*
D03*
X74803Y-4921D02*
D03*
X375000Y-24606D02*
D03*
X359252Y-64961D02*
D03*
Y-68898D02*
D03*
X367126Y-67913D02*
D03*
X375000Y-57087D02*
D03*
Y-44291D02*
D03*
Y-31496D02*
D03*
X367126Y-6890D02*
D03*
Y-19685D02*
D03*
Y-31496D02*
D03*
Y-44291D02*
D03*
Y-57087D02*
D03*
X117126Y-8858D02*
D03*
X104331D02*
D03*
X90551D02*
D03*
X84646Y-5906D02*
D03*
X97441D02*
D03*
X110236D02*
D03*
X124016D02*
D03*
Y-11811D02*
D03*
X110236D02*
D03*
X97441D02*
D03*
X84646D02*
D03*
X258858Y-311024D02*
D03*
X253937Y-236221D02*
D03*
X80709Y-155512D02*
D03*
X81011Y-161487D02*
D03*
Y-149242D02*
D03*
X84646Y-230315D02*
D03*
X81011Y-224410D02*
D03*
X79724Y-227362D02*
D03*
X155512Y-184055D02*
D03*
X125388Y-121936D02*
D03*
D96*
X99410Y-259842D02*
D03*
D97*
X381890Y-11811D02*
D03*
X11811Y-381890D02*
D03*
X381890D02*
D03*
X11811Y-11811D02*
D03*
M02*
