M48
;Layer_Color=9474304
;FILE_FORMAT=2:4
INCH,TZ
;TYPE=PLATED
T1F00S00C0.0118
T2F00S00C0.0197
T4F00S00C0.0280
T5F00S00C0.0354
T6F00S00C0.0394
T7F00S00C0.0433
T8F00S00C0.0472
T9F00S00C0.0591
T10F00S00C0.1181
T11F00S00C0.2382
;TYPE=NON_PLATED
T12F00S00C0.0256
T13F00S00C0.0394
T14F00S00C0.0472
T15F00S00C0.1181
%
T01
X7480Y-37598
X8735Y-37906
X9941Y-37697
X11319Y-37894
X10885Y-38822
X12500Y-37575
X13878Y-37894
X14314Y-38127
X14567Y-38780
X14101Y-35097
X12795Y-35433
Y-34350
X12410Y-34208
X11528Y-34440
X11571Y-35220
X10138Y-35335
X9646Y-35433
X9154Y-35335
X9100Y-34399
X8256Y-32789
X10138Y-32087
X9744Y-31201
X10425Y-30807
X10858Y-30496
X11319Y-30217
X11516Y-28248
X11024
X10272Y-28346
X10394Y-27756
X8169Y-27657
Y-25591
X8975Y-25854
X8661Y-24016
X10630Y-24705
X11179Y-26063
X11738Y-26610
X12894Y-28346
X15610Y-26498
X13797Y-24550
X6199Y-25305
X4816Y-27328
X11811Y-32382
X12205Y-32677
X18154Y-32276
X18164Y-30698
X18522Y-29442
X19961Y-29148
X20669Y-28740
X21090Y-27708
X20237Y-27719
X19685Y-27657
X20177Y-26378
X21123Y-26421
X21555Y-27264
X21949Y-25394
X21850Y-24606
X20905Y-24675
X19685Y-25197
X17278Y-26389
X24409Y-26476
Y-25984
X24708Y-25438
X24902Y-24409
X23700Y-24123
X24016Y-27461
X24902
X24898Y-28536
X24016Y-28543
X24409Y-28937
X25474Y-29190
X26416Y-29676
X26392Y-31667
X25080Y-30441
X22353Y-31894
X22238Y-32470
X22095Y-35434
X23300Y-35368
X24163Y-34754
X21738Y-38141
X20056Y-38151
X16831Y-37697
X16339Y-39075
X16502Y-35095
X33604Y-35794
X34350Y-35812
X34350Y-35335
X37205Y-35138
Y-35925
X32137Y-37896
X31664Y-19407
X31721Y-18753
X37500Y-8760
X37502Y-8251
X38091Y-8268
Y-8760
X38681
Y-8268
X21782Y-8256
X21161Y-8268
X20177Y-11909
X15780Y-11173
X15846Y-10433
X16254Y-10151
X15846Y-17815
X18116Y-20330
X18116Y-20854
X17839Y-23149
X19499Y-22332
X20114Y-21845
X20874Y-19961
X20160Y-19021
X19587Y-18933
X23920Y-18504
X26194Y-19419
X27176Y-20953
X29649Y-19667
X30126Y-19910
X30514Y-19400
X31102Y-19390
Y-18799
X30512
X29950Y-19138
X24456Y-22018
X14364Y-23239
X13891Y-22772
X12392Y-23141
X9449Y-23228
X9703Y-21593
X10409Y-21769
X10433Y-19685
Y-18898
X9526Y-17858
X9024Y-16972
X8560Y-19266
X8648Y-20138
X8673Y-20679
X6656Y-19832
X4392Y-21568
X4002Y-22208
X4417Y-22742
X2362Y-22835
X1280
Y-23228
X1575Y-21752
X1476Y-19488
Y-18996
Y-18406
Y-17815
Y-17224
Y-16634
Y-15945
X591Y-15551
Y-14961
Y-14272
Y-13484
X3690Y-13502
X3541Y-12106
X5191Y-12312
X9350Y-9350
Y-8858
Y-8366
X11590Y-9319
X13547Y-10272
X14895Y-11193
X12894Y-13976
X13053Y-15152
X13635Y-15758
X14173Y-16240
X14665Y-16732
X15256Y-17323
X15061Y-18793
X14370Y-18209
X13780Y-17618
X13229Y-17156
X12689Y-16676
X12061Y-16081
X11629Y-20747
X13828Y-20261
X9350Y-7972
X21161Y-7776
X21752
X21850Y-7185
Y-6594
T02
X25886Y-31102
X25394Y-23622
X15551Y-18406
X12539Y-12194
X8101Y-14924
X8071Y-15551
X8101Y-16149
Y-22441
X7972Y-22736
X8465Y-23031
Y-1181
Y-591
X7874Y-886
X7480Y-492
X7382Y-1280
X9055Y-886
X9744Y-1181
Y-591
X10433Y-886
X11024Y-1181
Y-591
X11713Y-886
X12402Y-1181
Y-591
X36713Y-689
Y-1969
Y-3150
X37500
Y-2461
X37106Y-3740
X37500Y-4429
X36713
X37106Y-5118
X37500Y-5709
X36713
Y-6791
X35925Y-6890
Y-6496
T04
X9941Y-25984
T05
X17378Y-33366
X18378
X19378
X20378
X21378
X22378
X24378
X25378
X26378
X27378
X28378
X29378
X29567Y-14406
X28567
X27567
X26567
X25567
X24567
X23567
X22567
X20762Y-14390
X19762
X18762
X17762
X16762
X15762
X14762
X13762
T06
X28715Y-38390
Y-36422
T07
X4375Y-34693
X5375
Y-33693
X4375
Y-32693
X5375
Y-31693
X4375
Y-30693
X5375
X3554Y-5610
Y-4429
T08
X24073Y-37390
X25073Y-36390
Y-38390
X24508Y-21358
X23508Y-20358
X24508Y-19358
T09
X33282Y-31398
X34781
X36281
X37782
X4538Y-9350
T10
X1181Y-38189
X38189
X1181Y-1181
X38189
T11
X35531Y-26280
Y-18898
T12
X2566Y-23196
X2562Y-20913
T13
X2421Y-27084
Y-25352
T14
X1625Y-9350
X2806
T15
X1853Y-5020
M30
