G04*
G04 #@! TF.GenerationSoftware,Altium Limited,Altium Designer,23.3.1 (30)*
G04*
G04 Layer_Color=8421504*
%FSLAX25Y25*%
%MOIN*%
G70*
G04*
G04 #@! TF.SameCoordinates,A0E3A479-A048-482A-A5C8-966E8189681F*
G04*
G04*
G04 #@! TF.FilePolarity,Positive*
G04*
G01*
G75*
%ADD19R,0.17717X0.06496*%
%ADD20R,0.03543X0.03150*%
%ADD21O,0.05984X0.02362*%
%ADD22R,0.03150X0.03543*%
%ADD23R,0.06201X0.02646*%
%ADD24R,0.02677X0.01102*%
%ADD25R,0.04921X0.06693*%
%ADD26O,0.01181X0.07874*%
%ADD27O,0.07874X0.01181*%
%ADD28R,0.02362X0.03937*%
%ADD29R,0.02362X0.04213*%
%ADD30R,0.03937X0.02362*%
%ADD31R,0.04213X0.02362*%
%ADD32R,0.02953X0.02756*%
%ADD33R,0.07480X0.05118*%
%ADD34R,0.09449X0.07480*%
%ADD35R,0.05906X0.07874*%
%ADD36R,0.33465X0.31496*%
%ADD37R,0.41600X0.28270*%
%ADD38R,0.04465X0.13223*%
%ADD39R,0.06496X0.17717*%
%ADD40R,0.07480X0.05709*%
%ADD41R,0.06693X0.01968*%
%ADD42R,0.12677X0.07181*%
G36*
X134783Y-6988D02*
Y-8760D01*
X134586Y-8957D01*
X132697D01*
X132421Y-8760D01*
Y-6988D01*
X132697Y-6791D01*
X134586D01*
X134783Y-6988D01*
D02*
G37*
G36*
X131004D02*
Y-8760D01*
X130728Y-8957D01*
X128838D01*
X128641Y-8760D01*
Y-6988D01*
X128838Y-6791D01*
X130728D01*
X131004Y-6988D01*
D02*
G37*
G36*
X361624Y-1969D02*
Y-11811D01*
X361230Y-12205D01*
X355581D01*
X355187Y-11811D01*
Y-9091D01*
X355581Y-8697D01*
X356982D01*
X357376Y-8303D01*
Y-5476D01*
X356982Y-5083D01*
X355581D01*
X355187Y-4689D01*
Y-1969D01*
X355581Y-1575D01*
X361230D01*
X361624Y-1969D01*
D02*
G37*
G36*
X349675D02*
Y-4689D01*
X349282Y-5083D01*
X347880D01*
X347487Y-5476D01*
Y-8303D01*
X347880Y-8697D01*
X349282D01*
X349675Y-9091D01*
Y-11811D01*
X349282Y-12205D01*
X343632D01*
X343238Y-11811D01*
Y-1969D01*
X343632Y-1575D01*
X349282D01*
X349675Y-1969D01*
D02*
G37*
G36*
X134783Y-10925D02*
Y-12697D01*
X134586Y-12894D01*
X132697D01*
X132421Y-12697D01*
Y-10925D01*
X132697Y-10728D01*
X134586D01*
X134783Y-10925D01*
D02*
G37*
G36*
X131004D02*
Y-12697D01*
X130728Y-12894D01*
X128838D01*
X128641Y-12697D01*
Y-10925D01*
X128838Y-10728D01*
X130728D01*
X131004Y-10925D01*
D02*
G37*
G36*
X129331Y-15807D02*
Y-21457D01*
X128937Y-21850D01*
X126217D01*
X125823Y-21457D01*
Y-20055D01*
X125429Y-19662D01*
X122602D01*
X122209Y-20055D01*
Y-21457D01*
X121815Y-21850D01*
X119095D01*
X118701Y-21457D01*
Y-15807D01*
X119095Y-15413D01*
X128937D01*
X129331Y-15807D01*
D02*
G37*
G36*
X115551D02*
Y-21457D01*
X115157Y-21850D01*
X112437D01*
X112043Y-21457D01*
Y-20055D01*
X111650Y-19662D01*
X108823D01*
X108429Y-20055D01*
Y-21457D01*
X108035Y-21850D01*
X105315D01*
X104921Y-21457D01*
Y-15807D01*
X105315Y-15413D01*
X115157D01*
X115551Y-15807D01*
D02*
G37*
G36*
X101772D02*
Y-21457D01*
X101378Y-21850D01*
X98658D01*
X98264Y-21457D01*
Y-20055D01*
X97870Y-19662D01*
X95043D01*
X94650Y-20055D01*
Y-21457D01*
X94256Y-21850D01*
X91535D01*
X91142Y-21457D01*
Y-15807D01*
X91535Y-15413D01*
X101378D01*
X101772Y-15807D01*
D02*
G37*
G36*
X87992D02*
Y-21457D01*
X87599Y-21850D01*
X84878D01*
X84484Y-21457D01*
Y-20055D01*
X84091Y-19662D01*
X81264D01*
X80870Y-20055D01*
Y-21457D01*
X80476Y-21850D01*
X77756D01*
X77362Y-21457D01*
Y-15807D01*
X77756Y-15413D01*
X87599D01*
X87992Y-15807D01*
D02*
G37*
G36*
X361624Y-14323D02*
Y-24165D01*
X361230Y-24559D01*
X355581D01*
X355187Y-24165D01*
Y-21445D01*
X355581Y-21051D01*
X356982D01*
X357376Y-20658D01*
Y-17831D01*
X356982Y-17437D01*
X355581D01*
X355187Y-17043D01*
Y-14323D01*
X355581Y-13929D01*
X361230D01*
X361624Y-14323D01*
D02*
G37*
G36*
X349675D02*
Y-17043D01*
X349282Y-17437D01*
X347880D01*
X347487Y-17831D01*
Y-20658D01*
X347880Y-21051D01*
X349282D01*
X349675Y-21445D01*
Y-24165D01*
X349282Y-24559D01*
X343632D01*
X343238Y-24165D01*
Y-14323D01*
X343632Y-13929D01*
X349282D01*
X349675Y-14323D01*
D02*
G37*
G36*
X129331Y-27756D02*
Y-33406D01*
X128937Y-33799D01*
X119095D01*
X118701Y-33406D01*
Y-27756D01*
X119095Y-27362D01*
X121815D01*
X122209Y-27756D01*
Y-29157D01*
X122602Y-29551D01*
X125429D01*
X125823Y-29157D01*
Y-27756D01*
X126217Y-27362D01*
X128937D01*
X129331Y-27756D01*
D02*
G37*
G36*
X115551D02*
Y-33406D01*
X115157Y-33799D01*
X105315D01*
X104921Y-33406D01*
Y-27756D01*
X105315Y-27362D01*
X108035D01*
X108429Y-27756D01*
Y-29157D01*
X108823Y-29551D01*
X111650D01*
X112043Y-29157D01*
Y-27756D01*
X112437Y-27362D01*
X115157D01*
X115551Y-27756D01*
D02*
G37*
G36*
X101772D02*
Y-33406D01*
X101378Y-33799D01*
X91535D01*
X91142Y-33406D01*
Y-27756D01*
X91535Y-27362D01*
X94256D01*
X94650Y-27756D01*
Y-29157D01*
X95043Y-29551D01*
X97870D01*
X98264Y-29157D01*
Y-27756D01*
X98658Y-27362D01*
X101378D01*
X101772Y-27756D01*
D02*
G37*
G36*
X87992D02*
Y-33406D01*
X87599Y-33799D01*
X77756D01*
X77362Y-33406D01*
Y-27756D01*
X77756Y-27362D01*
X80476D01*
X80870Y-27756D01*
Y-29157D01*
X81264Y-29551D01*
X84091D01*
X84484Y-29157D01*
Y-27756D01*
X84878Y-27362D01*
X87599D01*
X87992Y-27756D01*
D02*
G37*
G36*
X361624Y-26677D02*
Y-36520D01*
X361230Y-36913D01*
X355581D01*
X355187Y-36520D01*
Y-33799D01*
X355581Y-33406D01*
X356982D01*
X357376Y-33012D01*
Y-30185D01*
X356982Y-29791D01*
X355581D01*
X355187Y-29398D01*
Y-26677D01*
X355581Y-26283D01*
X361230D01*
X361624Y-26677D01*
D02*
G37*
G36*
X349675D02*
Y-29398D01*
X349282Y-29791D01*
X347880D01*
X347487Y-30185D01*
Y-33012D01*
X347880Y-33406D01*
X349282D01*
X349675Y-33799D01*
Y-36520D01*
X349282Y-36913D01*
X343632D01*
X343238Y-36520D01*
Y-26677D01*
X343632Y-26283D01*
X349282D01*
X349675Y-26677D01*
D02*
G37*
G36*
X361624Y-39031D02*
Y-48874D01*
X361230Y-49268D01*
X355581D01*
X355187Y-48874D01*
Y-46154D01*
X355581Y-45760D01*
X356982D01*
X357376Y-45366D01*
Y-42539D01*
X356982Y-42146D01*
X355581D01*
X355187Y-41752D01*
Y-39031D01*
X355581Y-38638D01*
X361230D01*
X361624Y-39031D01*
D02*
G37*
G36*
X349675D02*
Y-41752D01*
X349282Y-42146D01*
X347880D01*
X347487Y-42539D01*
Y-45366D01*
X347880Y-45760D01*
X349282D01*
X349675Y-46154D01*
Y-48874D01*
X349282Y-49268D01*
X343632D01*
X343238Y-48874D01*
Y-39031D01*
X343632Y-38638D01*
X349282D01*
X349675Y-39031D01*
D02*
G37*
G36*
X361624Y-51386D02*
Y-61228D01*
X361230Y-61622D01*
X355581D01*
X355187Y-61228D01*
Y-58508D01*
X355581Y-58114D01*
X356982D01*
X357376Y-57720D01*
Y-54894D01*
X356982Y-54500D01*
X355581D01*
X355187Y-54106D01*
Y-51386D01*
X355581Y-50992D01*
X361230D01*
X361624Y-51386D01*
D02*
G37*
G36*
X349675D02*
Y-54106D01*
X349282Y-54500D01*
X347880D01*
X347487Y-54894D01*
Y-57720D01*
X347880Y-58114D01*
X349282D01*
X349675Y-58508D01*
Y-61228D01*
X349282Y-61622D01*
X343632D01*
X343238Y-61228D01*
Y-51386D01*
X343632Y-50992D01*
X349282D01*
X349675Y-51386D01*
D02*
G37*
G36*
X355256Y-64075D02*
Y-65847D01*
X355059Y-66043D01*
X353169D01*
X352894Y-65847D01*
Y-64075D01*
X353169Y-63878D01*
X355059D01*
X355256Y-64075D01*
D02*
G37*
G36*
X351476D02*
Y-65847D01*
X351201Y-66043D01*
X349311D01*
X349114Y-65847D01*
Y-64075D01*
X349311Y-63878D01*
X351201D01*
X351476Y-64075D01*
D02*
G37*
G36*
X355256Y-68012D02*
Y-69783D01*
X355059Y-69980D01*
X353169D01*
X352893Y-69783D01*
Y-68012D01*
X353169Y-67815D01*
X355059D01*
X355256Y-68012D01*
D02*
G37*
G36*
X351476D02*
Y-69783D01*
X351201Y-69980D01*
X349311D01*
X349114Y-69783D01*
Y-68012D01*
X349311Y-67815D01*
X351201D01*
X351476Y-68012D01*
D02*
G37*
G36*
X207657Y-76181D02*
Y-79331D01*
X207460Y-79527D01*
X204350D01*
X204153Y-79331D01*
Y-78433D01*
X205649D01*
Y-77134D01*
X204153D01*
Y-76181D01*
X204350Y-75984D01*
X207460D01*
X207657Y-76181D01*
D02*
G37*
G36*
X201398D02*
Y-77134D01*
X199941D01*
Y-78433D01*
X201398D01*
Y-79331D01*
X201201Y-79527D01*
X198051D01*
X197854Y-79331D01*
Y-76181D01*
X198051Y-75984D01*
X201201D01*
X201398Y-76181D01*
D02*
G37*
G36*
X161410D02*
Y-79331D01*
X161213Y-79527D01*
X158103D01*
X157906Y-79331D01*
Y-78433D01*
X159402D01*
Y-77134D01*
X157906D01*
Y-76181D01*
X158103Y-75984D01*
X161213D01*
X161410Y-76181D01*
D02*
G37*
G36*
X155150D02*
Y-77134D01*
X153694D01*
Y-78433D01*
X155150D01*
Y-79331D01*
X154954Y-79527D01*
X151804D01*
X151607Y-79331D01*
Y-76181D01*
X151804Y-75984D01*
X154954D01*
X155150Y-76181D01*
D02*
G37*
G36*
X207657Y-82086D02*
Y-85236D01*
X207460Y-85433D01*
X204350D01*
X204153Y-85236D01*
Y-84339D01*
X205649D01*
Y-83039D01*
X204153D01*
Y-82086D01*
X204350Y-81890D01*
X207460D01*
X207657Y-82086D01*
D02*
G37*
G36*
X201398D02*
Y-83039D01*
X199941D01*
Y-84339D01*
X201398D01*
Y-85236D01*
X201201Y-85433D01*
X198051D01*
X197854Y-85236D01*
Y-82086D01*
X198051Y-81890D01*
X201201D01*
X201398Y-82086D01*
D02*
G37*
G36*
X161410D02*
Y-85236D01*
X161213Y-85433D01*
X158103D01*
X157906Y-85236D01*
Y-84339D01*
X159402D01*
Y-83039D01*
X157906D01*
Y-82086D01*
X158103Y-81890D01*
X161213D01*
X161410Y-82086D01*
D02*
G37*
G36*
X155150D02*
Y-83039D01*
X153694D01*
Y-84339D01*
X155150D01*
Y-85236D01*
X154954Y-85433D01*
X151804D01*
X151607Y-85236D01*
Y-82086D01*
X151804Y-81890D01*
X154954D01*
X155150Y-82086D01*
D02*
G37*
G36*
X164468Y-91792D02*
Y-93681D01*
X164272Y-93957D01*
X162500D01*
X162303Y-93681D01*
Y-91792D01*
X162500Y-91595D01*
X164272D01*
X164468Y-91792D01*
D02*
G37*
G36*
X154720Y-91152D02*
Y-96801D01*
X154326Y-97195D01*
X151606D01*
X151212Y-96801D01*
Y-95400D01*
X150818Y-95007D01*
X147992D01*
X147598Y-95400D01*
Y-96801D01*
X147204Y-97195D01*
X144484D01*
X144090Y-96801D01*
Y-91152D01*
X144484Y-90758D01*
X154326D01*
X154720Y-91152D01*
D02*
G37*
G36*
X164468Y-95650D02*
Y-97540D01*
X164272Y-97737D01*
X162500D01*
X162303Y-97540D01*
Y-95650D01*
X162500Y-95374D01*
X164272D01*
X164468Y-95650D01*
D02*
G37*
G36*
X154720Y-103101D02*
Y-108750D01*
X154326Y-109144D01*
X144484D01*
X144090Y-108750D01*
Y-103101D01*
X144484Y-102707D01*
X147204D01*
X147598Y-103101D01*
Y-104502D01*
X147992Y-104896D01*
X150818D01*
X151212Y-104502D01*
Y-103101D01*
X151606Y-102707D01*
X154326D01*
X154720Y-103101D01*
D02*
G37*
G36*
X137894Y-107540D02*
Y-109429D01*
X137697Y-109705D01*
X135925D01*
X135728Y-109429D01*
Y-107540D01*
X135925Y-107343D01*
X137697D01*
X137894Y-107540D01*
D02*
G37*
G36*
X210433Y-106503D02*
Y-109613D01*
X210236Y-109810D01*
X209339D01*
Y-108314D01*
X208039D01*
Y-109810D01*
X207086D01*
X206890Y-109613D01*
Y-106503D01*
X207086Y-106306D01*
X210236D01*
X210433Y-106503D01*
D02*
G37*
G36*
X203543Y-106528D02*
Y-109678D01*
X203347Y-109875D01*
X202394D01*
Y-108418D01*
X201095D01*
Y-109875D01*
X200197D01*
X200000Y-109678D01*
Y-106528D01*
X200197Y-106332D01*
X203347D01*
X203543Y-106528D01*
D02*
G37*
G36*
X137894Y-111398D02*
Y-113288D01*
X137697Y-113485D01*
X135925D01*
X135728Y-113288D01*
Y-111398D01*
X135925Y-111122D01*
X137697D01*
X137894Y-111398D01*
D02*
G37*
G36*
X210433Y-112763D02*
Y-115912D01*
X210236Y-116109D01*
X207086D01*
X206890Y-115912D01*
Y-112763D01*
X207086Y-112566D01*
X208039D01*
Y-114023D01*
X209339D01*
Y-112566D01*
X210236D01*
X210433Y-112763D01*
D02*
G37*
G36*
X203543Y-112828D02*
Y-115938D01*
X203347Y-116135D01*
X200197D01*
X200000Y-115938D01*
Y-112828D01*
X200197Y-112631D01*
X201095D01*
Y-114127D01*
X202394D01*
Y-112631D01*
X203347D01*
X203543Y-112828D01*
D02*
G37*
G36*
X43275Y-113583D02*
Y-116732D01*
X43078Y-116929D01*
X39968D01*
X39771Y-116732D01*
Y-115835D01*
X41267D01*
Y-114535D01*
X39771D01*
Y-113583D01*
X39968Y-113386D01*
X43078D01*
X43275Y-113583D01*
D02*
G37*
G36*
X37015D02*
Y-114535D01*
X35558D01*
Y-115835D01*
X37015D01*
Y-116732D01*
X36818Y-116929D01*
X33668D01*
X33472Y-116732D01*
Y-113583D01*
X33668Y-113386D01*
X36818D01*
X37015Y-113583D01*
D02*
G37*
G36*
X172185Y-117224D02*
Y-118996D01*
X171988Y-119193D01*
X170098D01*
X169823Y-118996D01*
Y-117224D01*
X170098Y-117027D01*
X171988D01*
X172185Y-117224D01*
D02*
G37*
G36*
X168405D02*
Y-118996D01*
X168130Y-119193D01*
X166240D01*
X166043Y-118996D01*
Y-117224D01*
X166240Y-117027D01*
X168130D01*
X168405Y-117224D01*
D02*
G37*
G36*
X43275Y-119488D02*
Y-122638D01*
X43078Y-122835D01*
X39928D01*
X39731Y-122638D01*
Y-121685D01*
X41188D01*
Y-120386D01*
X39731D01*
Y-119488D01*
X39928Y-119291D01*
X43078D01*
X43275Y-119488D01*
D02*
G37*
G36*
X36975D02*
Y-120386D01*
X35480D01*
Y-121685D01*
X36975D01*
Y-122638D01*
X36779Y-122835D01*
X33669D01*
X33472Y-122638D01*
Y-119488D01*
X33669Y-119291D01*
X36779D01*
X36975Y-119488D01*
D02*
G37*
G36*
X52461Y-126083D02*
Y-127854D01*
X52264Y-128051D01*
X50374D01*
X50099Y-127854D01*
Y-126083D01*
X50374Y-125886D01*
X52264D01*
X52461Y-126083D01*
D02*
G37*
G36*
X48681D02*
Y-127854D01*
X48406Y-128051D01*
X46516D01*
X46319Y-127854D01*
Y-126083D01*
X46516Y-125886D01*
X48406D01*
X48681Y-126083D01*
D02*
G37*
G36*
X52461Y-131988D02*
Y-133760D01*
X52264Y-133957D01*
X50374D01*
X50099Y-133760D01*
Y-131988D01*
X50374Y-131791D01*
X52264D01*
X52461Y-131988D01*
D02*
G37*
G36*
X48681D02*
Y-133760D01*
X48406Y-133957D01*
X46516D01*
X46319Y-133760D01*
Y-131988D01*
X46516Y-131791D01*
X48406D01*
X48681Y-131988D01*
D02*
G37*
G36*
X26840Y-130905D02*
Y-140748D01*
X26447Y-141142D01*
X20797D01*
X20403Y-140748D01*
Y-138028D01*
X20797Y-137634D01*
X22198D01*
X22592Y-137240D01*
Y-134413D01*
X22198Y-134020D01*
X20797D01*
X20403Y-133626D01*
Y-130905D01*
X20797Y-130512D01*
X26447D01*
X26840Y-130905D01*
D02*
G37*
G36*
X14892D02*
Y-133626D01*
X14498Y-134020D01*
X13097D01*
X12703Y-134413D01*
Y-137240D01*
X13097Y-137634D01*
X14498D01*
X14892Y-138028D01*
Y-140748D01*
X14498Y-141142D01*
X8848D01*
X8455Y-140748D01*
Y-130905D01*
X8848Y-130512D01*
X14498D01*
X14892Y-130905D01*
D02*
G37*
G36*
X26840Y-144685D02*
Y-154528D01*
X26447Y-154921D01*
X20797D01*
X20403Y-154528D01*
Y-151807D01*
X20797Y-151413D01*
X22198D01*
X22592Y-151020D01*
Y-148193D01*
X22198Y-147799D01*
X20797D01*
X20403Y-147406D01*
Y-144685D01*
X20797Y-144291D01*
X26447D01*
X26840Y-144685D01*
D02*
G37*
G36*
X14892D02*
Y-147406D01*
X14498Y-147799D01*
X13097D01*
X12703Y-148193D01*
Y-151020D01*
X13097Y-151413D01*
X14498D01*
X14892Y-151807D01*
Y-154528D01*
X14498Y-154921D01*
X8848D01*
X8455Y-154528D01*
Y-144685D01*
X8848Y-144291D01*
X14498D01*
X14892Y-144685D01*
D02*
G37*
G36*
X25531Y-158563D02*
Y-160335D01*
X25334Y-160531D01*
X23445D01*
X23169Y-160335D01*
Y-158563D01*
X23445Y-158366D01*
X25334D01*
X25531Y-158563D01*
D02*
G37*
G36*
X21752D02*
Y-160335D01*
X21476Y-160531D01*
X19586D01*
X19389Y-160335D01*
Y-158563D01*
X19586Y-158366D01*
X21476D01*
X21752Y-158563D01*
D02*
G37*
G36*
X32421Y-165453D02*
Y-167224D01*
X32224Y-167421D01*
X30334D01*
X30059Y-167224D01*
Y-165453D01*
X30334Y-165256D01*
X32224D01*
X32421Y-165453D01*
D02*
G37*
G36*
X28641D02*
Y-167224D01*
X28366Y-167421D01*
X26476D01*
X26279Y-167224D01*
Y-165453D01*
X26476Y-165256D01*
X28366D01*
X28641Y-165453D01*
D02*
G37*
G36*
X36683Y-169291D02*
Y-179134D01*
X36289Y-179528D01*
X30640D01*
X30246Y-179134D01*
Y-176413D01*
X30640Y-176020D01*
X32041D01*
X32435Y-175626D01*
Y-172799D01*
X32041Y-172406D01*
X30640D01*
X30246Y-172012D01*
Y-169291D01*
X30640Y-168898D01*
X36289D01*
X36683Y-169291D01*
D02*
G37*
G36*
X24734D02*
Y-172012D01*
X24341Y-172406D01*
X22939D01*
X22546Y-172799D01*
Y-175626D01*
X22939Y-176020D01*
X24341D01*
X24734Y-176413D01*
Y-179134D01*
X24341Y-179528D01*
X18691D01*
X18297Y-179134D01*
Y-169291D01*
X18691Y-168898D01*
X24341D01*
X24734Y-169291D01*
D02*
G37*
G36*
X238485Y-179232D02*
Y-181004D01*
X238288Y-181201D01*
X236398D01*
X236122Y-181004D01*
Y-179232D01*
X236398Y-179035D01*
X238288D01*
X238485Y-179232D01*
D02*
G37*
G36*
X234705D02*
Y-181004D01*
X234429Y-181201D01*
X232540D01*
X232343Y-181004D01*
Y-179232D01*
X232540Y-179035D01*
X234429D01*
X234705Y-179232D01*
D02*
G37*
G36*
X92923Y-173228D02*
Y-183071D01*
X92529Y-183465D01*
X86880D01*
X86486Y-183071D01*
Y-180350D01*
X86880Y-179957D01*
X88281D01*
X88675Y-179563D01*
Y-176736D01*
X88281Y-176342D01*
X86880D01*
X86486Y-175949D01*
Y-173228D01*
X86880Y-172835D01*
X92529D01*
X92923Y-173228D01*
D02*
G37*
G36*
X80974D02*
Y-175949D01*
X80581Y-176342D01*
X79180D01*
X78786Y-176736D01*
Y-179563D01*
X79180Y-179957D01*
X80581D01*
X80974Y-180350D01*
Y-183071D01*
X80581Y-183465D01*
X74931D01*
X74537Y-183071D01*
Y-173228D01*
X74931Y-172835D01*
X80581D01*
X80974Y-173228D01*
D02*
G37*
G36*
X209042Y-182728D02*
Y-185877D01*
X208845Y-186074D01*
X205735D01*
X205538Y-185877D01*
Y-184980D01*
X207034D01*
Y-183680D01*
X205538D01*
Y-182728D01*
X205735Y-182531D01*
X208845D01*
X209042Y-182728D01*
D02*
G37*
G36*
X202782D02*
Y-183680D01*
X201326D01*
Y-184980D01*
X202782D01*
Y-185877D01*
X202585Y-186074D01*
X199436D01*
X199239Y-185877D01*
Y-182728D01*
X199436Y-182531D01*
X202585D01*
X202782Y-182728D01*
D02*
G37*
G36*
X196949Y-184311D02*
Y-186201D01*
X196752Y-186477D01*
X194980D01*
X194783Y-186201D01*
Y-184311D01*
X194980Y-184115D01*
X196752D01*
X196949Y-184311D01*
D02*
G37*
G36*
X241135Y-183465D02*
Y-186614D01*
X240938Y-186811D01*
X237828D01*
X237631Y-186614D01*
Y-185717D01*
X239127D01*
Y-184417D01*
X237631D01*
Y-183465D01*
X237828Y-183268D01*
X240938D01*
X241135Y-183465D01*
D02*
G37*
G36*
X234875D02*
Y-184417D01*
X233418D01*
Y-185717D01*
X234875D01*
Y-186614D01*
X234678Y-186811D01*
X231528D01*
X231332Y-186614D01*
Y-183465D01*
X231528Y-183268D01*
X234678D01*
X234875Y-183465D01*
D02*
G37*
G36*
X196949Y-188170D02*
Y-190059D01*
X196752Y-190256D01*
X194980D01*
X194783Y-190059D01*
Y-188170D01*
X194980Y-187894D01*
X196752D01*
X196949Y-188170D01*
D02*
G37*
G36*
X81989Y-191043D02*
Y-192815D01*
X81792Y-193012D01*
X79902D01*
X79626Y-192815D01*
Y-191043D01*
X79902Y-190847D01*
X81792D01*
X81989Y-191043D01*
D02*
G37*
G36*
X78209D02*
Y-192815D01*
X77933Y-193012D01*
X76044D01*
X75847Y-192815D01*
Y-191043D01*
X76044Y-190847D01*
X77933D01*
X78209Y-191043D01*
D02*
G37*
G36*
X36683Y-183071D02*
Y-192913D01*
X36289Y-193307D01*
X30640D01*
X30246Y-192913D01*
Y-190193D01*
X30640Y-189799D01*
X32041D01*
X32435Y-189406D01*
Y-186579D01*
X32041Y-186185D01*
X30640D01*
X30246Y-185791D01*
Y-183071D01*
X30640Y-182677D01*
X36289D01*
X36683Y-183071D01*
D02*
G37*
G36*
X24734D02*
Y-185791D01*
X24341Y-186185D01*
X22939D01*
X22546Y-186579D01*
Y-189406D01*
X22939Y-189799D01*
X24341D01*
X24734Y-190193D01*
Y-192913D01*
X24341Y-193307D01*
X18691D01*
X18297Y-192913D01*
Y-183071D01*
X18691Y-182677D01*
X24341D01*
X24734Y-183071D01*
D02*
G37*
G36*
X274968Y-194291D02*
Y-197440D01*
X274771Y-197637D01*
X271661D01*
X271464Y-197440D01*
Y-196543D01*
X272960D01*
Y-195244D01*
X271464D01*
Y-194291D01*
X271661Y-194094D01*
X274771D01*
X274968Y-194291D01*
D02*
G37*
G36*
X268708D02*
Y-195244D01*
X267251D01*
Y-196543D01*
X268708D01*
Y-197440D01*
X268511Y-197637D01*
X265361D01*
X265165Y-197440D01*
Y-194291D01*
X265361Y-194094D01*
X268511D01*
X268708Y-194291D01*
D02*
G37*
G36*
X262894Y-197736D02*
Y-199626D01*
X262697Y-199901D01*
X260925D01*
X260728Y-199626D01*
Y-197736D01*
X260925Y-197539D01*
X262697D01*
X262894Y-197736D01*
D02*
G37*
G36*
X81989Y-200886D02*
Y-202658D01*
X81792Y-202854D01*
X79902D01*
X79626Y-202658D01*
Y-200886D01*
X79902Y-200689D01*
X81792D01*
X81989Y-200886D01*
D02*
G37*
G36*
X78209D02*
Y-202658D01*
X77933Y-202854D01*
X76044D01*
X75847Y-202658D01*
Y-200886D01*
X76044Y-200689D01*
X77933D01*
X78209Y-200886D01*
D02*
G37*
G36*
X262894Y-201594D02*
Y-203484D01*
X262697Y-203681D01*
X260925D01*
X260728Y-203484D01*
Y-201594D01*
X260925Y-201319D01*
X262697D01*
X262894Y-201594D01*
D02*
G37*
G36*
X29850Y-201571D02*
X29948Y-201579D01*
X30046Y-201591D01*
X30142Y-201608D01*
X30238Y-201630D01*
X30332Y-201656D01*
X30426Y-201688D01*
X30517Y-201724D01*
X30606Y-201764D01*
X30694Y-201809D01*
X30779Y-201858D01*
X30861Y-201911D01*
X30941Y-201968D01*
X31018Y-202029D01*
X31091Y-202095D01*
X31161Y-202163D01*
X31228Y-202235D01*
X31291Y-202310D01*
X31350Y-202388D01*
X31406Y-202469D01*
X31457Y-202553D01*
X31504Y-202639D01*
X31547Y-202728D01*
X31585Y-202818D01*
X31618Y-202910D01*
X31647Y-203004D01*
X31671Y-203099D01*
X31691Y-203196D01*
X31705Y-203293D01*
X31715Y-203390D01*
X31720Y-203488D01*
Y-203587D01*
X31715Y-203684D01*
X31705Y-203782D01*
X31691Y-203879D01*
X31671Y-203976D01*
X31647Y-204071D01*
X31618Y-204164D01*
X31585Y-204257D01*
X31547Y-204347D01*
X31504Y-204435D01*
X31457Y-204522D01*
X31406Y-204605D01*
X31350Y-204687D01*
X31291Y-204765D01*
X31228Y-204840D01*
X31161Y-204912D01*
X31091Y-204980D01*
X31018Y-205045D01*
X30941Y-205107D01*
X30861Y-205164D01*
X30779Y-205217D01*
X30694Y-205266D01*
X30606Y-205311D01*
X30517Y-205351D01*
X30426Y-205387D01*
X30332Y-205418D01*
X30238Y-205445D01*
X30142Y-205467D01*
X30046Y-205484D01*
X29948Y-205496D01*
X29850Y-205504D01*
X29752Y-205506D01*
X25421D01*
X25323Y-205504D01*
X25225Y-205496D01*
X25128Y-205484D01*
X25031Y-205467D01*
X24936Y-205445D01*
X24841Y-205418D01*
X24748Y-205387D01*
X24657Y-205351D01*
X24567Y-205311D01*
X24480Y-205266D01*
X24395Y-205217D01*
X24313Y-205164D01*
X24233Y-205107D01*
X24156Y-205045D01*
X24082Y-204980D01*
X24012Y-204912D01*
X23945Y-204840D01*
X23882Y-204765D01*
X23823Y-204687D01*
X23768Y-204605D01*
X23717Y-204522D01*
X23670Y-204435D01*
X23627Y-204347D01*
X23589Y-204257D01*
X23555Y-204164D01*
X23527Y-204071D01*
X23502Y-203976D01*
X23483Y-203879D01*
X23468Y-203782D01*
X23458Y-203684D01*
X23453Y-203587D01*
Y-203488D01*
X23458Y-203390D01*
X23468Y-203293D01*
X23483Y-203196D01*
X23502Y-203099D01*
X23527Y-203004D01*
X23555Y-202910D01*
X23589Y-202818D01*
X23627Y-202728D01*
X23670Y-202639D01*
X23717Y-202553D01*
X23768Y-202469D01*
X23823Y-202388D01*
X23882Y-202310D01*
X23945Y-202235D01*
X24012Y-202163D01*
X24082Y-202095D01*
X24156Y-202029D01*
X24233Y-201968D01*
X24313Y-201911D01*
X24395Y-201858D01*
X24480Y-201809D01*
X24567Y-201764D01*
X24657Y-201724D01*
X24748Y-201688D01*
X24841Y-201656D01*
X24936Y-201630D01*
X25031Y-201608D01*
X25128Y-201591D01*
X25225Y-201579D01*
X25323Y-201571D01*
X25421Y-201569D01*
X29752D01*
X29850Y-201571D01*
D02*
G37*
G36*
X12921D02*
X13019Y-201579D01*
X13116Y-201591D01*
X13213Y-201608D01*
X13308Y-201630D01*
X13403Y-201656D01*
X13496Y-201688D01*
X13587Y-201724D01*
X13677Y-201764D01*
X13764Y-201809D01*
X13849Y-201858D01*
X13931Y-201911D01*
X14011Y-201968D01*
X14088Y-202029D01*
X14162Y-202095D01*
X14232Y-202163D01*
X14299Y-202235D01*
X14362Y-202310D01*
X14421Y-202388D01*
X14476Y-202469D01*
X14527Y-202553D01*
X14574Y-202639D01*
X14617Y-202728D01*
X14655Y-202818D01*
X14689Y-202910D01*
X14717Y-203004D01*
X14742Y-203099D01*
X14761Y-203196D01*
X14776Y-203293D01*
X14786Y-203390D01*
X14791Y-203488D01*
Y-203587D01*
X14786Y-203684D01*
X14776Y-203782D01*
X14761Y-203879D01*
X14742Y-203976D01*
X14717Y-204071D01*
X14689Y-204164D01*
X14655Y-204257D01*
X14617Y-204347D01*
X14574Y-204435D01*
X14527Y-204522D01*
X14476Y-204605D01*
X14421Y-204687D01*
X14362Y-204765D01*
X14299Y-204840D01*
X14232Y-204912D01*
X14162Y-204980D01*
X14088Y-205045D01*
X14011Y-205107D01*
X13931Y-205164D01*
X13849Y-205217D01*
X13764Y-205266D01*
X13677Y-205311D01*
X13587Y-205351D01*
X13496Y-205387D01*
X13403Y-205418D01*
X13308Y-205445D01*
X13213Y-205467D01*
X13116Y-205484D01*
X13019Y-205496D01*
X12921Y-205504D01*
X12823Y-205506D01*
X9673D01*
X9575Y-205504D01*
X9477Y-205496D01*
X9380Y-205484D01*
X9283Y-205467D01*
X9187Y-205445D01*
X9093Y-205418D01*
X9000Y-205387D01*
X8908Y-205351D01*
X8819Y-205311D01*
X8732Y-205266D01*
X8647Y-205217D01*
X8564Y-205164D01*
X8484Y-205107D01*
X8408Y-205045D01*
X8334Y-204980D01*
X8264Y-204912D01*
X8197Y-204840D01*
X8134Y-204765D01*
X8075Y-204687D01*
X8019Y-204605D01*
X7968Y-204522D01*
X7921Y-204435D01*
X7879Y-204347D01*
X7841Y-204257D01*
X7807Y-204164D01*
X7778Y-204071D01*
X7754Y-203976D01*
X7734Y-203879D01*
X7720Y-203782D01*
X7710Y-203684D01*
X7705Y-203587D01*
Y-203488D01*
X7710Y-203390D01*
X7720Y-203293D01*
X7734Y-203196D01*
X7754Y-203099D01*
X7778Y-203004D01*
X7807Y-202910D01*
X7841Y-202818D01*
X7879Y-202728D01*
X7921Y-202639D01*
X7968Y-202553D01*
X8019Y-202469D01*
X8075Y-202388D01*
X8134Y-202310D01*
X8197Y-202235D01*
X8264Y-202163D01*
X8334Y-202095D01*
X8408Y-202029D01*
X8484Y-201968D01*
X8564Y-201911D01*
X8647Y-201858D01*
X8732Y-201809D01*
X8819Y-201764D01*
X8908Y-201724D01*
X9000Y-201688D01*
X9093Y-201656D01*
X9187Y-201630D01*
X9283Y-201608D01*
X9380Y-201591D01*
X9477Y-201579D01*
X9575Y-201571D01*
X9673Y-201569D01*
X12823D01*
X12921Y-201571D01*
D02*
G37*
G36*
X317352Y-201070D02*
Y-205331D01*
X316959Y-205725D01*
X314098D01*
X313704Y-205331D01*
Y-204402D01*
X313311Y-204008D01*
X310339D01*
X309945Y-204402D01*
Y-205331D01*
X309552Y-205725D01*
X306691D01*
X306297Y-205331D01*
Y-201070D01*
X306691Y-200676D01*
X316959D01*
X317352Y-201070D01*
D02*
G37*
G36*
X52500Y-196850D02*
Y-206693D01*
X52106Y-207087D01*
X46457D01*
X46063Y-206693D01*
Y-203973D01*
X46457Y-203579D01*
X47858D01*
X48252Y-203185D01*
Y-200358D01*
X47858Y-199965D01*
X46457D01*
X46063Y-199571D01*
Y-196850D01*
X46457Y-196457D01*
X52106D01*
X52500Y-196850D01*
D02*
G37*
G36*
X40551D02*
Y-199571D01*
X40157Y-199965D01*
X38756D01*
X38363Y-200358D01*
Y-203185D01*
X38756Y-203579D01*
X40157D01*
X40551Y-203973D01*
Y-206693D01*
X40157Y-207087D01*
X34508D01*
X34114Y-206693D01*
Y-196850D01*
X34508Y-196457D01*
X40157D01*
X40551Y-196850D01*
D02*
G37*
G36*
X305086Y-205118D02*
Y-208268D01*
X304889Y-208465D01*
X301779D01*
X301582Y-208268D01*
Y-207370D01*
X303078D01*
Y-206071D01*
X301582D01*
Y-205118D01*
X301779Y-204921D01*
X304889D01*
X305086Y-205118D01*
D02*
G37*
G36*
X298826D02*
Y-206071D01*
X297369D01*
Y-207370D01*
X298826D01*
Y-208268D01*
X298629Y-208465D01*
X295479D01*
X295283Y-208268D01*
Y-205118D01*
X295479Y-204921D01*
X298629D01*
X298826Y-205118D01*
D02*
G37*
G36*
X287369D02*
Y-208268D01*
X287172Y-208465D01*
X284062D01*
X283865Y-208268D01*
Y-207370D01*
X285361D01*
Y-206071D01*
X283865D01*
Y-205118D01*
X284062Y-204921D01*
X287172D01*
X287369Y-205118D01*
D02*
G37*
G36*
X281109D02*
Y-206071D01*
X279653D01*
Y-207370D01*
X281109D01*
Y-208268D01*
X280912Y-208465D01*
X277763D01*
X277566Y-208268D01*
Y-205118D01*
X277763Y-204921D01*
X280912D01*
X281109Y-205118D01*
D02*
G37*
G36*
X32488Y-209128D02*
X27961D01*
Y-206766D01*
X32488D01*
Y-209128D01*
D02*
G37*
G36*
X192854Y-207775D02*
Y-209547D01*
X192657Y-209744D01*
X190767D01*
X190492Y-209547D01*
Y-207775D01*
X190767Y-207579D01*
X192657D01*
X192854Y-207775D01*
D02*
G37*
G36*
X189074D02*
Y-209547D01*
X188799Y-209744D01*
X186909D01*
X186712Y-209547D01*
Y-207775D01*
X186909Y-207579D01*
X188799D01*
X189074Y-207775D01*
D02*
G37*
G36*
X41457Y-209744D02*
Y-211516D01*
X41260Y-211713D01*
X39370D01*
X39095Y-211516D01*
Y-209744D01*
X39370Y-209547D01*
X41260D01*
X41457Y-209744D01*
D02*
G37*
G36*
X37677D02*
Y-211516D01*
X37402Y-211713D01*
X35512D01*
X35315Y-211516D01*
Y-209744D01*
X35512Y-209547D01*
X37402D01*
X37677Y-209744D01*
D02*
G37*
G36*
X32488Y-212278D02*
X27961D01*
Y-209915D01*
X32488D01*
Y-212278D01*
D02*
G37*
G36*
X305086Y-210039D02*
Y-213189D01*
X304889Y-213386D01*
X301779D01*
X301582Y-213189D01*
Y-212291D01*
X303078D01*
Y-210992D01*
X301582D01*
Y-210039D01*
X301779Y-209842D01*
X304889D01*
X305086Y-210039D01*
D02*
G37*
G36*
X298826D02*
Y-210992D01*
X297369D01*
Y-212291D01*
X298826D01*
Y-213189D01*
X298629Y-213386D01*
X295479D01*
X295283Y-213189D01*
Y-210039D01*
X295479Y-209842D01*
X298629D01*
X298826Y-210039D01*
D02*
G37*
G36*
X287369D02*
Y-213189D01*
X287172Y-213386D01*
X284062D01*
X283865Y-213189D01*
Y-212291D01*
X285361D01*
Y-210992D01*
X283865D01*
Y-210039D01*
X284062Y-209842D01*
X287172D01*
X287369Y-210039D01*
D02*
G37*
G36*
X281109D02*
Y-210992D01*
X279653D01*
Y-212291D01*
X281109D01*
Y-213189D01*
X280912Y-213386D01*
X277763D01*
X277566Y-213189D01*
Y-210039D01*
X277763Y-209842D01*
X280912D01*
X281109Y-210039D01*
D02*
G37*
G36*
X317352Y-212418D02*
Y-216680D01*
X316959Y-217074D01*
X306691D01*
X306297Y-216680D01*
Y-212418D01*
X306691Y-212024D01*
X309552D01*
X309945Y-212418D01*
Y-213347D01*
X310339Y-213741D01*
X313311D01*
X313704Y-213347D01*
Y-212418D01*
X314098Y-212024D01*
X316959D01*
X317352Y-212418D01*
D02*
G37*
G36*
X32488Y-214246D02*
X27961D01*
Y-213065D01*
X32488D01*
Y-214246D01*
D02*
G37*
G36*
X185621Y-211942D02*
Y-215091D01*
X185424Y-215288D01*
X184527D01*
Y-213831D01*
X183228D01*
Y-215288D01*
X182275D01*
X182078Y-215091D01*
Y-211942D01*
X182275Y-211745D01*
X185424D01*
X185621Y-211942D01*
D02*
G37*
G36*
X197933Y-213484D02*
Y-215374D01*
X197736Y-215649D01*
X195965D01*
X195768Y-215374D01*
Y-213484D01*
X195965Y-213287D01*
X197736D01*
X197933Y-213484D01*
D02*
G37*
G36*
X32488Y-216215D02*
X27961D01*
Y-215033D01*
X32488D01*
Y-216215D01*
D02*
G37*
G36*
X40939Y-214646D02*
Y-216457D01*
X40781Y-216614D01*
X38810D01*
X38653Y-216457D01*
Y-214646D01*
X38810Y-214488D01*
X40781D01*
X40939Y-214646D01*
D02*
G37*
G36*
X37590D02*
Y-216457D01*
X37432Y-216614D01*
X35461D01*
X35304Y-216457D01*
Y-214646D01*
X35461Y-214488D01*
X37432D01*
X37590Y-214646D01*
D02*
G37*
G36*
X32488Y-218183D02*
X27961D01*
Y-217002D01*
X32488D01*
Y-218183D01*
D02*
G37*
G36*
X197933Y-217342D02*
Y-219232D01*
X197736Y-219429D01*
X195965D01*
X195768Y-219232D01*
Y-217342D01*
X195965Y-217067D01*
X197736D01*
X197933Y-217342D01*
D02*
G37*
G36*
X185621Y-218241D02*
Y-221351D01*
X185424Y-221548D01*
X182275D01*
X182078Y-221351D01*
Y-218241D01*
X182275Y-218044D01*
X183228D01*
Y-219540D01*
X184527D01*
Y-218044D01*
X185424D01*
X185621Y-218241D01*
D02*
G37*
G36*
X32488Y-220151D02*
X27961D01*
Y-218970D01*
X32488D01*
Y-220151D01*
D02*
G37*
G36*
X93907Y-210630D02*
Y-220473D01*
X93514Y-220866D01*
X87864D01*
X87471Y-220473D01*
Y-217752D01*
X87864Y-217358D01*
X89265D01*
X89659Y-216965D01*
Y-214138D01*
X89265Y-213744D01*
X87864D01*
X87471Y-213350D01*
Y-210630D01*
X87864Y-210236D01*
X93514D01*
X93907Y-210630D01*
D02*
G37*
G36*
X81959D02*
Y-213350D01*
X81565Y-213744D01*
X80164D01*
X79770Y-214138D01*
Y-216965D01*
X80164Y-217358D01*
X81565D01*
X81959Y-217752D01*
Y-220473D01*
X81565Y-220866D01*
X75915D01*
X75522Y-220473D01*
Y-210630D01*
X75915Y-210236D01*
X81565D01*
X81959Y-210630D01*
D02*
G37*
G36*
X32488Y-222120D02*
X27961D01*
Y-220939D01*
X32488D01*
Y-222120D01*
D02*
G37*
G36*
X261350Y-220551D02*
Y-222362D01*
X261192Y-222519D01*
X259222D01*
X259064Y-222362D01*
Y-220551D01*
X259222Y-220393D01*
X261192D01*
X261350Y-220551D01*
D02*
G37*
G36*
X258001D02*
Y-222362D01*
X257843Y-222519D01*
X255873D01*
X255715Y-222362D01*
Y-220551D01*
X255873Y-220393D01*
X257843D01*
X258001Y-220551D01*
D02*
G37*
G36*
X252492D02*
Y-222362D01*
X252334Y-222519D01*
X250363D01*
X250206Y-222362D01*
Y-220551D01*
X250363Y-220393D01*
X252334D01*
X252492Y-220551D01*
D02*
G37*
G36*
X249143D02*
Y-222362D01*
X248985Y-222519D01*
X247014D01*
X246857Y-222362D01*
Y-220551D01*
X247014Y-220393D01*
X248985D01*
X249143Y-220551D01*
D02*
G37*
G36*
X273615Y-219882D02*
Y-223031D01*
X273418Y-223228D01*
X270308D01*
X270111Y-223031D01*
Y-222134D01*
X271607D01*
Y-220835D01*
X270111D01*
Y-219882D01*
X270308Y-219685D01*
X273418D01*
X273615Y-219882D01*
D02*
G37*
G36*
X267355D02*
Y-220835D01*
X265898D01*
Y-222134D01*
X267355D01*
Y-223031D01*
X267158Y-223228D01*
X264009D01*
X263812Y-223031D01*
Y-219882D01*
X264009Y-219685D01*
X267158D01*
X267355Y-219882D01*
D02*
G37*
G36*
X214534D02*
Y-223031D01*
X214337Y-223228D01*
X211227D01*
X211031Y-223031D01*
Y-222134D01*
X212526D01*
Y-220835D01*
X211031D01*
Y-219882D01*
X211227Y-219685D01*
X214337D01*
X214534Y-219882D01*
D02*
G37*
G36*
X208275D02*
Y-220835D01*
X206818D01*
Y-222134D01*
X208275D01*
Y-223031D01*
X208078Y-223228D01*
X204928D01*
X204731Y-223031D01*
Y-219882D01*
X204928Y-219685D01*
X208078D01*
X208275Y-219882D01*
D02*
G37*
G36*
X32488Y-224089D02*
X27961D01*
Y-222907D01*
X32488D01*
Y-224089D01*
D02*
G37*
G36*
Y-226057D02*
X27961D01*
Y-224876D01*
X32488D01*
Y-226057D01*
D02*
G37*
G36*
X261411Y-225472D02*
Y-227283D01*
X261254Y-227441D01*
X259283D01*
X259125Y-227283D01*
Y-225472D01*
X259283Y-225315D01*
X261254D01*
X261411Y-225472D01*
D02*
G37*
G36*
X258062D02*
Y-227283D01*
X257905Y-227441D01*
X255934D01*
X255776Y-227283D01*
Y-225472D01*
X255934Y-225315D01*
X257905D01*
X258062Y-225472D01*
D02*
G37*
G36*
X252553D02*
Y-227283D01*
X252396Y-227441D01*
X250425D01*
X250267Y-227283D01*
Y-225472D01*
X250425Y-225315D01*
X252396D01*
X252553Y-225472D01*
D02*
G37*
G36*
X249204D02*
Y-227283D01*
X249046Y-227441D01*
X247076D01*
X246918Y-227283D01*
Y-225472D01*
X247076Y-225315D01*
X249046D01*
X249204Y-225472D01*
D02*
G37*
G36*
X32488Y-228026D02*
X27961D01*
Y-226844D01*
X32488D01*
Y-228026D01*
D02*
G37*
G36*
X40939Y-226457D02*
Y-228268D01*
X40781Y-228425D01*
X38810D01*
X38653Y-228268D01*
Y-226457D01*
X38810Y-226299D01*
X40781D01*
X40939Y-226457D01*
D02*
G37*
G36*
X37590D02*
Y-228268D01*
X37432Y-228425D01*
X35461D01*
X35304Y-228268D01*
Y-226457D01*
X35461Y-226299D01*
X37432D01*
X37590Y-226457D01*
D02*
G37*
G36*
X240125Y-225787D02*
Y-228937D01*
X239928Y-229134D01*
X236818D01*
X236621Y-228937D01*
Y-228039D01*
X238117D01*
Y-226740D01*
X236621D01*
Y-225787D01*
X236818Y-225590D01*
X239928D01*
X240125Y-225787D01*
D02*
G37*
G36*
X233865D02*
Y-226740D01*
X232408D01*
Y-228039D01*
X233865D01*
Y-228937D01*
X233668Y-229134D01*
X230519D01*
X230322Y-228937D01*
Y-225787D01*
X230519Y-225590D01*
X233668D01*
X233865Y-225787D01*
D02*
G37*
G36*
X201850Y-227390D02*
Y-229361D01*
X201693Y-229519D01*
X199882D01*
X199724Y-229361D01*
Y-227390D01*
X199882Y-227233D01*
X201693D01*
X201850Y-227390D01*
D02*
G37*
G36*
X32488Y-231175D02*
X27961D01*
Y-228813D01*
X32488D01*
Y-231175D01*
D02*
G37*
G36*
X201850Y-230739D02*
Y-232710D01*
X201693Y-232868D01*
X199882D01*
X199724Y-232710D01*
Y-230739D01*
X199882Y-230582D01*
X201693D01*
X201850Y-230739D01*
D02*
G37*
G36*
X32488Y-234325D02*
X27961D01*
Y-231963D01*
X32488D01*
Y-234325D01*
D02*
G37*
G36*
X227165Y-232487D02*
Y-235637D01*
X226969Y-235834D01*
X226016D01*
Y-234377D01*
X224716D01*
Y-235834D01*
X223819D01*
X223622Y-235637D01*
Y-232487D01*
X223819Y-232290D01*
X226969D01*
X227165Y-232487D01*
D02*
G37*
G36*
X220276D02*
Y-235637D01*
X220079Y-235834D01*
X219126D01*
Y-234377D01*
X217827D01*
Y-235834D01*
X216929D01*
X216732Y-235637D01*
Y-232487D01*
X216929Y-232290D01*
X220079D01*
X220276Y-232487D01*
D02*
G37*
G36*
X250098Y-235315D02*
Y-237205D01*
X249902Y-237480D01*
X248130D01*
X247933Y-237205D01*
Y-235315D01*
X248130Y-235118D01*
X249902D01*
X250098Y-235315D01*
D02*
G37*
G36*
X29850Y-235587D02*
X29948Y-235595D01*
X30046Y-235607D01*
X30142Y-235624D01*
X30238Y-235646D01*
X30332Y-235672D01*
X30426Y-235704D01*
X30517Y-235740D01*
X30606Y-235780D01*
X30694Y-235825D01*
X30779Y-235874D01*
X30861Y-235927D01*
X30941Y-235984D01*
X31018Y-236045D01*
X31091Y-236110D01*
X31161Y-236179D01*
X31228Y-236251D01*
X31291Y-236326D01*
X31350Y-236404D01*
X31406Y-236485D01*
X31457Y-236569D01*
X31504Y-236655D01*
X31547Y-236744D01*
X31585Y-236834D01*
X31618Y-236927D01*
X31647Y-237020D01*
X31671Y-237116D01*
X31691Y-237212D01*
X31705Y-237309D01*
X31715Y-237406D01*
X31720Y-237504D01*
Y-237603D01*
X31715Y-237701D01*
X31705Y-237798D01*
X31691Y-237895D01*
X31671Y-237991D01*
X31647Y-238087D01*
X31618Y-238180D01*
X31585Y-238273D01*
X31547Y-238363D01*
X31504Y-238452D01*
X31457Y-238538D01*
X31406Y-238621D01*
X31350Y-238703D01*
X31291Y-238781D01*
X31228Y-238856D01*
X31161Y-238928D01*
X31091Y-238997D01*
X31018Y-239061D01*
X30941Y-239123D01*
X30861Y-239180D01*
X30779Y-239233D01*
X30694Y-239282D01*
X30606Y-239327D01*
X30517Y-239367D01*
X30426Y-239403D01*
X30332Y-239435D01*
X30238Y-239461D01*
X30142Y-239483D01*
X30046Y-239500D01*
X29948Y-239512D01*
X29850Y-239520D01*
X29752Y-239522D01*
X25421D01*
X25323Y-239520D01*
X25225Y-239512D01*
X25128Y-239500D01*
X25031Y-239483D01*
X24936Y-239461D01*
X24841Y-239435D01*
X24748Y-239403D01*
X24657Y-239367D01*
X24567Y-239327D01*
X24480Y-239282D01*
X24395Y-239233D01*
X24313Y-239180D01*
X24233Y-239123D01*
X24156Y-239061D01*
X24082Y-238997D01*
X24012Y-238928D01*
X23945Y-238856D01*
X23882Y-238781D01*
X23823Y-238703D01*
X23768Y-238621D01*
X23717Y-238538D01*
X23670Y-238452D01*
X23627Y-238363D01*
X23589Y-238273D01*
X23555Y-238180D01*
X23527Y-238087D01*
X23502Y-237991D01*
X23483Y-237895D01*
X23468Y-237798D01*
X23458Y-237701D01*
X23453Y-237603D01*
Y-237504D01*
X23458Y-237406D01*
X23468Y-237309D01*
X23483Y-237212D01*
X23502Y-237116D01*
X23527Y-237020D01*
X23555Y-236927D01*
X23589Y-236834D01*
X23627Y-236744D01*
X23670Y-236655D01*
X23717Y-236569D01*
X23768Y-236485D01*
X23823Y-236404D01*
X23882Y-236326D01*
X23945Y-236251D01*
X24012Y-236179D01*
X24082Y-236110D01*
X24156Y-236045D01*
X24233Y-235984D01*
X24313Y-235927D01*
X24395Y-235874D01*
X24480Y-235825D01*
X24567Y-235780D01*
X24657Y-235740D01*
X24748Y-235704D01*
X24841Y-235672D01*
X24936Y-235646D01*
X25031Y-235624D01*
X25128Y-235607D01*
X25225Y-235595D01*
X25323Y-235587D01*
X25421Y-235585D01*
X29752D01*
X29850Y-235587D01*
D02*
G37*
G36*
X12921D02*
X13019Y-235595D01*
X13116Y-235607D01*
X13213Y-235624D01*
X13308Y-235646D01*
X13403Y-235672D01*
X13496Y-235704D01*
X13587Y-235740D01*
X13677Y-235780D01*
X13764Y-235825D01*
X13849Y-235874D01*
X13931Y-235927D01*
X14011Y-235984D01*
X14088Y-236045D01*
X14162Y-236110D01*
X14232Y-236179D01*
X14299Y-236251D01*
X14362Y-236326D01*
X14421Y-236404D01*
X14476Y-236485D01*
X14527Y-236569D01*
X14574Y-236655D01*
X14617Y-236744D01*
X14655Y-236834D01*
X14689Y-236927D01*
X14717Y-237020D01*
X14742Y-237116D01*
X14761Y-237212D01*
X14776Y-237309D01*
X14786Y-237406D01*
X14791Y-237504D01*
Y-237603D01*
X14786Y-237701D01*
X14776Y-237798D01*
X14761Y-237895D01*
X14742Y-237991D01*
X14717Y-238087D01*
X14689Y-238180D01*
X14655Y-238273D01*
X14617Y-238363D01*
X14574Y-238452D01*
X14527Y-238538D01*
X14476Y-238621D01*
X14421Y-238703D01*
X14362Y-238781D01*
X14299Y-238856D01*
X14232Y-238928D01*
X14162Y-238997D01*
X14088Y-239061D01*
X14011Y-239123D01*
X13931Y-239180D01*
X13849Y-239233D01*
X13764Y-239282D01*
X13677Y-239327D01*
X13587Y-239367D01*
X13496Y-239403D01*
X13403Y-239435D01*
X13308Y-239461D01*
X13213Y-239483D01*
X13116Y-239500D01*
X13019Y-239512D01*
X12921Y-239520D01*
X12823Y-239522D01*
X9673D01*
X9575Y-239520D01*
X9477Y-239512D01*
X9380Y-239500D01*
X9283Y-239483D01*
X9187Y-239461D01*
X9093Y-239435D01*
X9000Y-239403D01*
X8908Y-239367D01*
X8819Y-239327D01*
X8732Y-239282D01*
X8647Y-239233D01*
X8564Y-239180D01*
X8484Y-239123D01*
X8408Y-239061D01*
X8334Y-238997D01*
X8264Y-238928D01*
X8197Y-238856D01*
X8134Y-238781D01*
X8075Y-238703D01*
X8019Y-238621D01*
X7968Y-238538D01*
X7921Y-238452D01*
X7879Y-238363D01*
X7841Y-238273D01*
X7807Y-238180D01*
X7778Y-238087D01*
X7754Y-237991D01*
X7734Y-237895D01*
X7720Y-237798D01*
X7710Y-237701D01*
X7705Y-237603D01*
Y-237504D01*
X7710Y-237406D01*
X7720Y-237309D01*
X7734Y-237212D01*
X7754Y-237116D01*
X7778Y-237020D01*
X7807Y-236927D01*
X7841Y-236834D01*
X7879Y-236744D01*
X7921Y-236655D01*
X7968Y-236569D01*
X8019Y-236485D01*
X8075Y-236404D01*
X8134Y-236326D01*
X8197Y-236251D01*
X8264Y-236179D01*
X8334Y-236110D01*
X8408Y-236045D01*
X8484Y-235984D01*
X8564Y-235927D01*
X8647Y-235874D01*
X8732Y-235825D01*
X8819Y-235780D01*
X8908Y-235740D01*
X9000Y-235704D01*
X9093Y-235672D01*
X9187Y-235646D01*
X9283Y-235624D01*
X9380Y-235607D01*
X9477Y-235595D01*
X9575Y-235587D01*
X9673Y-235585D01*
X12823D01*
X12921Y-235587D01*
D02*
G37*
G36*
X227165Y-238786D02*
Y-241897D01*
X226969Y-242093D01*
X223819D01*
X223622Y-241897D01*
Y-238786D01*
X223819Y-238590D01*
X224716D01*
Y-240086D01*
X226016D01*
Y-238590D01*
X226969D01*
X227165Y-238786D01*
D02*
G37*
G36*
X220276D02*
Y-241897D01*
X220079Y-242093D01*
X216929D01*
X216732Y-241897D01*
Y-238786D01*
X216929Y-238590D01*
X217827D01*
Y-240086D01*
X219126D01*
Y-238590D01*
X220079D01*
X220276Y-238786D01*
D02*
G37*
G36*
X250098Y-239173D02*
Y-241063D01*
X249902Y-241260D01*
X248130D01*
X247933Y-241063D01*
Y-239173D01*
X248130Y-238898D01*
X249902D01*
X250098Y-239173D01*
D02*
G37*
G36*
X189901Y-240256D02*
Y-242027D01*
X189704Y-242224D01*
X187815D01*
X187539Y-242027D01*
Y-240256D01*
X187815Y-240059D01*
X189704D01*
X189901Y-240256D01*
D02*
G37*
G36*
X186122D02*
Y-242027D01*
X185846Y-242224D01*
X183956D01*
X183759Y-242027D01*
Y-240256D01*
X183956Y-240059D01*
X185846D01*
X186122Y-240256D01*
D02*
G37*
G36*
X189901Y-245177D02*
Y-246949D01*
X189704Y-247146D01*
X187815D01*
X187539Y-246949D01*
Y-245177D01*
X187815Y-244980D01*
X189704D01*
X189901Y-245177D01*
D02*
G37*
G36*
X186122D02*
Y-246949D01*
X185846Y-247146D01*
X183956D01*
X183759Y-246949D01*
Y-245177D01*
X183956Y-244980D01*
X185846D01*
X186122Y-245177D01*
D02*
G37*
G36*
X227165Y-246292D02*
Y-249403D01*
X226968Y-249599D01*
X226071D01*
Y-248103D01*
X224772D01*
Y-249599D01*
X223819D01*
X223622Y-249403D01*
Y-246292D01*
X223819Y-246095D01*
X226968D01*
X227165Y-246292D01*
D02*
G37*
G36*
X234055Y-246292D02*
Y-249442D01*
X233858Y-249639D01*
X232906D01*
Y-248182D01*
X231606D01*
Y-249639D01*
X230709D01*
X230512Y-249442D01*
Y-246292D01*
X230709Y-246095D01*
X233858D01*
X234055Y-246292D01*
D02*
G37*
G36*
X244274Y-246301D02*
Y-249450D01*
X244077Y-249647D01*
X243125D01*
Y-248190D01*
X241825D01*
Y-249647D01*
X240928D01*
X240731Y-249450D01*
Y-246301D01*
X240928Y-246104D01*
X244077D01*
X244274Y-246301D01*
D02*
G37*
G36*
X67333Y-240157D02*
Y-250000D01*
X66939Y-250394D01*
X61289D01*
X60896Y-250000D01*
Y-247280D01*
X61289Y-246886D01*
X62691D01*
X63084Y-246492D01*
Y-243665D01*
X62691Y-243272D01*
X61289D01*
X60896Y-242878D01*
Y-240157D01*
X61289Y-239764D01*
X66939D01*
X67333Y-240157D01*
D02*
G37*
G36*
X55384D02*
Y-242878D01*
X54990Y-243272D01*
X53589D01*
X53195Y-243665D01*
Y-246492D01*
X53589Y-246886D01*
X54990D01*
X55384Y-247280D01*
Y-250000D01*
X54990Y-250394D01*
X49341D01*
X48947Y-250000D01*
Y-240157D01*
X49341Y-239764D01*
X54990D01*
X55384Y-240157D01*
D02*
G37*
G36*
X227165Y-252552D02*
Y-255702D01*
X226968Y-255899D01*
X223819D01*
X223622Y-255702D01*
Y-252552D01*
X223819Y-252355D01*
X224772D01*
Y-253812D01*
X226071D01*
Y-252355D01*
X226968D01*
X227165Y-252552D01*
D02*
G37*
G36*
X234055Y-252591D02*
Y-255702D01*
X233858Y-255898D01*
X230709D01*
X230512Y-255702D01*
Y-252591D01*
X230709Y-252395D01*
X231606D01*
Y-253891D01*
X232906D01*
Y-252395D01*
X233858D01*
X234055Y-252591D01*
D02*
G37*
G36*
X244274Y-252600D02*
Y-255710D01*
X244077Y-255907D01*
X240928D01*
X240731Y-255710D01*
Y-252600D01*
X240928Y-252403D01*
X241825D01*
Y-253899D01*
X243125D01*
Y-252403D01*
X244077D01*
X244274Y-252600D01*
D02*
G37*
G36*
X47362Y-255020D02*
Y-256791D01*
X47165Y-256988D01*
X45276D01*
X45000Y-256791D01*
Y-255020D01*
X45276Y-254823D01*
X47165D01*
X47362Y-255020D01*
D02*
G37*
G36*
X43583D02*
Y-256791D01*
X43307Y-256988D01*
X41417D01*
X41221Y-256791D01*
Y-255020D01*
X41417Y-254823D01*
X43307D01*
X43583Y-255020D01*
D02*
G37*
G36*
X240150Y-258268D02*
Y-261417D01*
X239954Y-261614D01*
X236843D01*
X236647Y-261417D01*
Y-260520D01*
X238143D01*
Y-259221D01*
X236647D01*
Y-258268D01*
X236843Y-258071D01*
X239954D01*
X240150Y-258268D01*
D02*
G37*
G36*
X233891D02*
Y-259221D01*
X232434D01*
Y-260520D01*
X233891D01*
Y-261417D01*
X233694Y-261614D01*
X230544D01*
X230347Y-261417D01*
Y-258268D01*
X230544Y-258071D01*
X233694D01*
X233891Y-258268D01*
D02*
G37*
G36*
X240151Y-263189D02*
Y-266339D01*
X239954Y-266535D01*
X236804D01*
X236607Y-266339D01*
Y-265386D01*
X238064D01*
Y-264087D01*
X236607D01*
Y-263189D01*
X236804Y-262992D01*
X239954D01*
X240151Y-263189D01*
D02*
G37*
G36*
X233851D02*
Y-264087D01*
X232355D01*
Y-265386D01*
X233851D01*
Y-266339D01*
X233655Y-266535D01*
X230544D01*
X230347Y-266339D01*
Y-263189D01*
X230544Y-262992D01*
X233655D01*
X233851Y-263189D01*
D02*
G37*
G36*
X50177Y-267126D02*
Y-270275D01*
X49980Y-270472D01*
X46870D01*
X46673Y-270275D01*
Y-269378D01*
X48169D01*
Y-268079D01*
X46673D01*
Y-267126D01*
X46870Y-266929D01*
X49980D01*
X50177Y-267126D01*
D02*
G37*
G36*
X43917D02*
Y-268079D01*
X42461D01*
Y-269378D01*
X43917D01*
Y-270275D01*
X43720Y-270472D01*
X40571D01*
X40374Y-270275D01*
Y-267126D01*
X40571Y-266929D01*
X43720D01*
X43917Y-267126D01*
D02*
G37*
G36*
X114577Y-263779D02*
Y-273622D01*
X114183Y-274016D01*
X108533D01*
X108140Y-273622D01*
Y-270902D01*
X108533Y-270508D01*
X109935D01*
X110328Y-270114D01*
Y-267287D01*
X109935Y-266894D01*
X108533D01*
X108140Y-266500D01*
Y-263779D01*
X108533Y-263386D01*
X114183D01*
X114577Y-263779D01*
D02*
G37*
G36*
X102628D02*
Y-266500D01*
X102234Y-266894D01*
X100833D01*
X100439Y-267287D01*
Y-270114D01*
X100833Y-270508D01*
X102234D01*
X102628Y-270902D01*
Y-273622D01*
X102234Y-274016D01*
X96585D01*
X96191Y-273622D01*
Y-263779D01*
X96585Y-263386D01*
X102234D01*
X102628Y-263779D01*
D02*
G37*
G36*
X103642Y-282579D02*
Y-284350D01*
X103445Y-284547D01*
X101555D01*
X101280Y-284350D01*
Y-282579D01*
X101555Y-282382D01*
X103445D01*
X103642Y-282579D01*
D02*
G37*
G36*
X99862D02*
Y-284350D01*
X99587Y-284547D01*
X97697D01*
X97500Y-284350D01*
Y-282579D01*
X97697Y-282382D01*
X99587D01*
X99862Y-282579D01*
D02*
G37*
G36*
X178445Y-306201D02*
Y-307973D01*
X178248Y-308169D01*
X176358D01*
X176083Y-307973D01*
Y-306201D01*
X176358Y-306004D01*
X178248D01*
X178445Y-306201D01*
D02*
G37*
G36*
X174666D02*
Y-307973D01*
X174390Y-308169D01*
X172500D01*
X172303Y-307973D01*
Y-306201D01*
X172500Y-306004D01*
X174390D01*
X174666Y-306201D01*
D02*
G37*
G36*
X154657Y-312087D02*
Y-313898D01*
X154499Y-314055D01*
X152528D01*
X152371Y-313898D01*
Y-312087D01*
X152528Y-311929D01*
X154499D01*
X154657Y-312087D01*
D02*
G37*
G36*
X151308D02*
Y-313898D01*
X151150Y-314055D01*
X149179D01*
X149022Y-313898D01*
Y-312087D01*
X149179Y-311929D01*
X151150D01*
X151308Y-312087D01*
D02*
G37*
G36*
X154657Y-316024D02*
Y-317835D01*
X154499Y-317992D01*
X152528D01*
X152371Y-317835D01*
Y-316024D01*
X152528Y-315866D01*
X154499D01*
X154657Y-316024D01*
D02*
G37*
G36*
X151308D02*
Y-317835D01*
X151150Y-317992D01*
X149179D01*
X149022Y-317835D01*
Y-316024D01*
X149179Y-315866D01*
X151150D01*
X151308Y-316024D01*
D02*
G37*
G36*
X178445Y-321949D02*
Y-323721D01*
X178248Y-323917D01*
X176358D01*
X176083Y-323721D01*
Y-321949D01*
X176358Y-321752D01*
X178248D01*
X178445Y-321949D01*
D02*
G37*
G36*
X174666D02*
Y-323721D01*
X174390Y-323917D01*
X172500D01*
X172303Y-323721D01*
Y-321949D01*
X172500Y-321752D01*
X174390D01*
X174666Y-321949D01*
D02*
G37*
G36*
X218800Y-323917D02*
Y-325689D01*
X218603Y-325886D01*
X216713D01*
X216437Y-325689D01*
Y-323917D01*
X216713Y-323721D01*
X218603D01*
X218800Y-323917D01*
D02*
G37*
G36*
X215020D02*
Y-325689D01*
X214744Y-325886D01*
X212855D01*
X212658Y-325689D01*
Y-323917D01*
X212855Y-323721D01*
X214744D01*
X215020Y-323917D01*
D02*
G37*
G36*
X121488Y-342842D02*
Y-345992D01*
X121291Y-346189D01*
X118181D01*
X117984Y-345992D01*
Y-345094D01*
X119480D01*
Y-343795D01*
X117984D01*
Y-342842D01*
X118181Y-342646D01*
X121291D01*
X121488Y-342842D01*
D02*
G37*
G36*
X115228D02*
Y-343795D01*
X113772D01*
Y-345094D01*
X115228D01*
Y-345992D01*
X115031Y-346189D01*
X111882D01*
X111685Y-345992D01*
Y-342842D01*
X111882Y-342646D01*
X115031D01*
X115228Y-342842D01*
D02*
G37*
G36*
X340650Y-352618D02*
Y-354508D01*
X340453Y-354784D01*
X338681D01*
X338484Y-354508D01*
Y-352618D01*
X338681Y-352421D01*
X340453D01*
X340650Y-352618D01*
D02*
G37*
G36*
X331496Y-351607D02*
Y-354718D01*
X331299Y-354914D01*
X330402D01*
Y-353418D01*
X329102D01*
Y-354914D01*
X328150D01*
X327953Y-354718D01*
Y-351607D01*
X328150Y-351411D01*
X331299D01*
X331496Y-351607D01*
D02*
G37*
G36*
X263091Y-355413D02*
Y-357185D01*
X262894Y-357382D01*
X261004D01*
X260729Y-357185D01*
Y-355413D01*
X261004Y-355217D01*
X262894D01*
X263091Y-355413D01*
D02*
G37*
G36*
X259311D02*
Y-357185D01*
X259036Y-357382D01*
X257146D01*
X256949Y-357185D01*
Y-355413D01*
X257146Y-355217D01*
X259036D01*
X259311Y-355413D01*
D02*
G37*
G36*
X340650Y-356477D02*
Y-358366D01*
X340453Y-358563D01*
X338681D01*
X338484Y-358366D01*
Y-356477D01*
X338681Y-356201D01*
X340453D01*
X340650Y-356477D01*
D02*
G37*
G36*
X331496Y-357867D02*
Y-361017D01*
X331299Y-361214D01*
X328150D01*
X327953Y-361017D01*
Y-357867D01*
X328150Y-357670D01*
X329102D01*
Y-359127D01*
X330402D01*
Y-357670D01*
X331299D01*
X331496Y-357867D01*
D02*
G37*
G36*
X226319Y-357382D02*
Y-359154D01*
X226122Y-359350D01*
X224232D01*
X223956Y-359154D01*
Y-357382D01*
X224232Y-357185D01*
X226122D01*
X226319Y-357382D01*
D02*
G37*
G36*
X222539D02*
Y-359154D01*
X222264Y-359350D01*
X220374D01*
X220177Y-359154D01*
Y-357382D01*
X220374Y-357185D01*
X222264D01*
X222539Y-357382D01*
D02*
G37*
G36*
X147736Y-376240D02*
Y-378130D01*
X147539Y-378406D01*
X145768D01*
X145571Y-378130D01*
Y-376240D01*
X145768Y-376044D01*
X147539D01*
X147736Y-376240D01*
D02*
G37*
G36*
X120866Y-375204D02*
Y-378314D01*
X120669Y-378511D01*
X119772D01*
Y-377015D01*
X118473D01*
Y-378511D01*
X117520D01*
X117323Y-378314D01*
Y-375204D01*
X117520Y-375007D01*
X120669D01*
X120866Y-375204D01*
D02*
G37*
G36*
X95275Y-375204D02*
Y-378314D01*
X95079Y-378511D01*
X94181D01*
Y-377015D01*
X92882D01*
Y-378511D01*
X91929D01*
X91732Y-378314D01*
Y-375204D01*
X91929Y-375007D01*
X95079D01*
X95275Y-375204D01*
D02*
G37*
G36*
X126063Y-378965D02*
Y-380936D01*
X125906Y-381094D01*
X124094D01*
X123937Y-380936D01*
Y-378965D01*
X124094Y-378808D01*
X125906D01*
X126063Y-378965D01*
D02*
G37*
G36*
X75866Y-379494D02*
Y-381465D01*
X75709Y-381623D01*
X73898D01*
X73740Y-381465D01*
Y-379494D01*
X73898Y-379337D01*
X75709D01*
X75866Y-379494D01*
D02*
G37*
G36*
X315913Y-378347D02*
Y-381496D01*
X315716Y-381693D01*
X312566D01*
X312369Y-381496D01*
Y-380543D01*
X313826D01*
Y-379244D01*
X312369D01*
Y-378347D01*
X312566Y-378150D01*
X315716D01*
X315913Y-378347D01*
D02*
G37*
G36*
X309613D02*
Y-379244D01*
X308117D01*
Y-380543D01*
X309613D01*
Y-381496D01*
X309417Y-381693D01*
X306306D01*
X306109Y-381496D01*
Y-378347D01*
X306306Y-378150D01*
X309417D01*
X309613Y-378347D01*
D02*
G37*
G36*
X100472Y-379949D02*
Y-381921D01*
X100315Y-382078D01*
X98504D01*
X98347Y-381921D01*
Y-379949D01*
X98504Y-379792D01*
X100315D01*
X100472Y-379949D01*
D02*
G37*
G36*
X147736Y-380099D02*
Y-381989D01*
X147539Y-382185D01*
X145768D01*
X145571Y-381989D01*
Y-380099D01*
X145768Y-379823D01*
X147539D01*
X147736Y-380099D01*
D02*
G37*
G36*
X70669Y-379166D02*
Y-382277D01*
X70472Y-382473D01*
X69575D01*
Y-380977D01*
X68276D01*
Y-382473D01*
X67323D01*
X67126Y-382277D01*
Y-379166D01*
X67323Y-378970D01*
X70472D01*
X70669Y-379166D01*
D02*
G37*
G36*
X120866Y-381464D02*
Y-384613D01*
X120669Y-384810D01*
X117520D01*
X117323Y-384613D01*
Y-381464D01*
X117520Y-381267D01*
X118473D01*
Y-382723D01*
X119772D01*
Y-381267D01*
X120669D01*
X120866Y-381464D01*
D02*
G37*
G36*
X95275Y-381464D02*
Y-384613D01*
X95079Y-384810D01*
X91929D01*
X91732Y-384613D01*
Y-381464D01*
X91929Y-381267D01*
X92882D01*
Y-382723D01*
X94181D01*
Y-381267D01*
X95079D01*
X95275Y-381464D01*
D02*
G37*
G36*
X126063Y-382314D02*
Y-384285D01*
X125906Y-384443D01*
X124094D01*
X123937Y-384285D01*
Y-382314D01*
X124094Y-382157D01*
X125906D01*
X126063Y-382314D01*
D02*
G37*
G36*
X75866Y-382843D02*
Y-384814D01*
X75709Y-384972D01*
X73898D01*
X73740Y-384814D01*
Y-382843D01*
X73898Y-382686D01*
X75709D01*
X75866Y-382843D01*
D02*
G37*
G36*
X100472Y-383298D02*
Y-385269D01*
X100315Y-385427D01*
X98504D01*
X98347Y-385269D01*
Y-383298D01*
X98504Y-383141D01*
X100315D01*
X100472Y-383298D01*
D02*
G37*
G36*
X70669Y-385426D02*
Y-388576D01*
X70472Y-388773D01*
X67323D01*
X67126Y-388576D01*
Y-385426D01*
X67323Y-385229D01*
X68276D01*
Y-386686D01*
X69575D01*
Y-385229D01*
X70472D01*
X70669Y-385426D01*
D02*
G37*
D19*
X381890Y-93504D02*
D03*
X346457D02*
D03*
D20*
X158465Y-98031D02*
D03*
Y-92520D02*
D03*
X131890Y-107283D02*
D03*
Y-112794D02*
D03*
X291339Y-206693D02*
D03*
Y-212204D02*
D03*
X190945Y-219723D02*
D03*
Y-214212D02*
D03*
X212598Y-233268D02*
D03*
Y-227757D02*
D03*
X206693Y-233268D02*
D03*
Y-227757D02*
D03*
X152559Y-382480D02*
D03*
Y-376969D02*
D03*
D21*
X171300Y-92893D02*
D03*
Y-97894D02*
D03*
Y-102893D02*
D03*
Y-107894D02*
D03*
X192874Y-92893D02*
D03*
Y-97894D02*
D03*
Y-102893D02*
D03*
Y-107894D02*
D03*
X224410Y-213740D02*
D03*
Y-208740D02*
D03*
Y-203740D02*
D03*
Y-198740D02*
D03*
X202835Y-213740D02*
D03*
Y-208740D02*
D03*
Y-203740D02*
D03*
Y-198740D02*
D03*
D22*
X171260Y-113189D02*
D03*
X165749D02*
D03*
X103936Y-277559D02*
D03*
X98425D02*
D03*
X201595Y-190208D02*
D03*
X207106D02*
D03*
X186418Y-203740D02*
D03*
X191929D02*
D03*
X224410Y-227362D02*
D03*
X218899D02*
D03*
X219488Y-318898D02*
D03*
X213977D02*
D03*
X165157Y-346457D02*
D03*
X159646D02*
D03*
X141142D02*
D03*
X146653D02*
D03*
X76772Y-206693D02*
D03*
X82283D02*
D03*
X76772Y-187008D02*
D03*
X82283D02*
D03*
X125984Y-93504D02*
D03*
X120473D02*
D03*
D23*
X125340Y-107241D02*
D03*
X125418Y-113189D02*
D03*
Y-101377D02*
D03*
D24*
X41890Y-126969D02*
D03*
Y-128937D02*
D03*
Y-130905D02*
D03*
Y-132874D02*
D03*
X36850D02*
D03*
Y-130905D02*
D03*
Y-128937D02*
D03*
Y-126969D02*
D03*
D25*
X68504Y-156496D02*
D03*
X51181D02*
D03*
X69488Y-231299D02*
D03*
X52165D02*
D03*
X68504Y-289370D02*
D03*
X51181D02*
D03*
D26*
X127953Y-335629D02*
D03*
X125984D02*
D03*
X124016D02*
D03*
X122047D02*
D03*
X120079D02*
D03*
X118110D02*
D03*
X116142D02*
D03*
X114173D02*
D03*
X112205D02*
D03*
X110236D02*
D03*
X108268D02*
D03*
X106299D02*
D03*
X104331D02*
D03*
X102362D02*
D03*
X100394D02*
D03*
X98425D02*
D03*
Y-290354D02*
D03*
X100394D02*
D03*
X102362D02*
D03*
X104331D02*
D03*
X106299D02*
D03*
X108268D02*
D03*
X110236D02*
D03*
X112205D02*
D03*
X114173D02*
D03*
X116142D02*
D03*
X118110D02*
D03*
X120079D02*
D03*
X122047D02*
D03*
X124016D02*
D03*
X125984D02*
D03*
X127953D02*
D03*
D27*
X90551Y-327756D02*
D03*
Y-325787D02*
D03*
Y-323819D02*
D03*
Y-321850D02*
D03*
Y-319882D02*
D03*
Y-317913D02*
D03*
Y-315945D02*
D03*
Y-313976D02*
D03*
Y-312008D02*
D03*
Y-310039D02*
D03*
Y-308071D02*
D03*
Y-306102D02*
D03*
Y-304134D02*
D03*
Y-302165D02*
D03*
Y-300197D02*
D03*
Y-298228D02*
D03*
X135826D02*
D03*
Y-300197D02*
D03*
Y-302165D02*
D03*
Y-304134D02*
D03*
Y-306102D02*
D03*
Y-308071D02*
D03*
Y-310039D02*
D03*
Y-312008D02*
D03*
Y-313976D02*
D03*
Y-315945D02*
D03*
Y-317913D02*
D03*
Y-319882D02*
D03*
Y-321850D02*
D03*
Y-323819D02*
D03*
Y-325787D02*
D03*
Y-327756D02*
D03*
D28*
X266142Y-203740D02*
D03*
X273622Y-203740D02*
D03*
X273622Y-213976D02*
D03*
X269881Y-213976D02*
D03*
X266141Y-213976D02*
D03*
X69882Y-192913D02*
D03*
X66142Y-192913D02*
D03*
X62402Y-192913D02*
D03*
X62401Y-203149D02*
D03*
X69881Y-203150D02*
D03*
D29*
X216929Y-190945D02*
D03*
X224410D02*
D03*
X220669Y-181220D02*
D03*
X131102Y-383799D02*
D03*
X138583D02*
D03*
X134843Y-374074D02*
D03*
X105512Y-383799D02*
D03*
X112992D02*
D03*
X109252Y-374074D02*
D03*
X79921Y-383799D02*
D03*
X87402D02*
D03*
X83661Y-374074D02*
D03*
X197047Y-246929D02*
D03*
X204528D02*
D03*
X200787Y-237205D02*
D03*
X317659Y-364216D02*
D03*
X321400Y-373940D02*
D03*
X313919D02*
D03*
D30*
X242520Y-234665D02*
D03*
X242519Y-242145D02*
D03*
X232283Y-242144D02*
D03*
X232283Y-238404D02*
D03*
X232283Y-234665D02*
D03*
D31*
X192854Y-235039D02*
D03*
Y-227559D02*
D03*
X183129Y-231299D02*
D03*
D32*
X159449Y-376969D02*
D03*
X163189Y-376969D02*
D03*
X159449Y-381851D02*
D03*
X163189D02*
D03*
D33*
X338780Y-346457D02*
D03*
X371850D02*
D03*
X338780Y-364173D02*
D03*
X371850D02*
D03*
X192126Y-364174D02*
D03*
X225197D02*
D03*
X192126Y-381890D02*
D03*
X225197D02*
D03*
D34*
X163386Y-322835D02*
D03*
Y-306693D02*
D03*
D35*
X146457Y-338583D02*
D03*
X159449D02*
D03*
D36*
X314961Y-59055D02*
D03*
X248031D02*
D03*
D37*
X203740Y-23622D02*
D03*
X157480Y-22638D02*
D03*
D38*
X213740Y-65242D02*
D03*
X193740D02*
D03*
X167480Y-64258D02*
D03*
X147480D02*
D03*
D39*
X86614Y-49213D02*
D03*
Y-84646D02*
D03*
D40*
X34248Y-278616D02*
D03*
X12595D02*
D03*
Y-245742D02*
D03*
X34248D02*
D03*
D41*
X35035Y-268478D02*
D03*
Y-265329D02*
D03*
Y-262179D02*
D03*
Y-259030D02*
D03*
Y-255880D02*
D03*
D42*
X37402Y-145669D02*
D03*
Y-156913D02*
D03*
M02*
